<svg xmlns="http://www.w3.org/2000/svg" width="71" height="82" fill="none"><g fill="#3056d3"><circle cx="1.293" cy="80.707" r="1.293" transform="rotate(-90 1.293 80.707)"/><circle cx="12.675" cy="80.707" r="1.293" transform="rotate(-90 12.675 80.707)"/><circle cx="24.057" cy="80.707" r="1.293" transform="rotate(-90 24.057 80.707)"/><circle cx="35.438" cy="80.707" r="1.293" transform="rotate(-90 35.438 80.707)"/><circle cx="46.82" cy="80.707" r="1.293" transform="rotate(-90 46.82 80.707)"/><circle cx="68.807" cy="80.707" r="1.293" transform="rotate(-90 68.807 80.707)"/><circle cx="57.944" cy="80.707" r="1.293" transform="rotate(-90 57.944 80.707)"/><circle cx="1.293" cy="69.325" r="1.293" transform="rotate(-90 1.293 69.325)"/><circle cx="12.675" cy="69.325" r="1.293" transform="rotate(-90 12.675 69.325)"/><circle cx="24.057" cy="69.325" r="1.293" transform="rotate(-90 24.057 69.325)"/><circle cx="35.438" cy="69.325" r="1.293" transform="rotate(-90 35.438 69.325)"/><circle cx="46.82" cy="69.325" r="1.293" transform="rotate(-90 46.82 69.325)"/><circle cx="68.807" cy="69.325" r="1.293" transform="rotate(-90 68.807 69.325)"/><circle cx="57.943" cy="69.325" r="1.293" transform="rotate(-90 57.943 69.325)"/><circle cx="1.293" cy="57.943" r="1.293" transform="rotate(-90 1.293 57.943)"/><circle cx="1.293" cy="24.057" r="1.293" transform="rotate(-90 1.293 24.057)"/><circle cx="12.675" cy="57.943" r="1.293" transform="rotate(-90 12.675 57.943)"/><circle cx="12.675" cy="24.057" r="1.293" transform="rotate(-90 12.675 24.057)"/><circle cx="24.057" cy="57.943" r="1.293" transform="rotate(-90 24.057 57.943)"/><circle cx="24.057" cy="24.057" r="1.293" transform="rotate(-90 24.057 24.057)"/><circle cx="35.438" cy="57.943" r="1.293" transform="rotate(-90 35.438 57.943)"/><circle cx="35.438" cy="24.057" r="1.293" transform="rotate(-90 35.438 24.057)"/><circle cx="46.82" cy="57.943" r="1.293" transform="rotate(-90 46.82 57.943)"/><circle cx="46.82" cy="24.057" r="1.293" transform="rotate(-90 46.82 24.057)"/><circle cx="68.807" cy="57.943" r="1.293" transform="rotate(-90 68.807 57.943)"/><circle cx="68.807" cy="24.057" r="1.293" transform="rotate(-90 68.807 24.057)"/><circle cx="57.943" cy="57.943" r="1.293" transform="rotate(-90 57.943 57.943)"/><circle cx="57.944" cy="24.057" r="1.293" transform="rotate(-90 57.944 24.057)"/><circle cx="1.293" cy="46.562" r="1.293" transform="rotate(-90 1.293 46.562)"/><circle cx="1.293" cy="12.675" r="1.293" transform="rotate(-90 1.293 12.675)"/><circle cx="12.675" cy="46.562" r="1.293" transform="rotate(-90 12.675 46.562)"/><circle cx="12.675" cy="12.675" r="1.293" transform="matrix(0 -1 1 0 0 25.35)"/><circle cx="24.057" cy="46.562" r="1.293" transform="rotate(-90 24.057 46.562)"/><circle cx="24.057" cy="12.675" r="1.293" transform="rotate(-90 24.057 12.675)"/><circle cx="35.438" cy="46.562" r="1.293" transform="rotate(-90 35.438 46.562)"/><circle cx="35.438" cy="12.675" r="1.293" transform="rotate(-90 35.438 12.675)"/><circle cx="46.82" cy="46.562" r="1.293" transform="rotate(-90 46.82 46.562)"/><circle cx="46.82" cy="12.675" r="1.293" transform="rotate(-90 46.82 12.675)"/><circle cx="68.807" cy="46.562" r="1.293" transform="rotate(-90 68.807 46.562)"/><circle cx="68.807" cy="12.675" r="1.293" transform="rotate(-90 68.807 12.675)"/><circle cx="57.943" cy="46.562" r="1.293" transform="rotate(-90 57.943 46.562)"/><circle cx="57.944" cy="12.675" r="1.293" transform="rotate(-90 57.944 12.675)"/><circle cx="1.293" cy="35.18" r="1.293" transform="rotate(-90 1.293 35.18)"/><circle cx="1.293" cy="1.293" r="1.293" transform="rotate(-90 1.293 1.293)"/><circle cx="12.675" cy="35.18" r="1.293" transform="rotate(-90 12.675 35.18)"/><circle cx="12.675" cy="1.293" r="1.293" transform="rotate(-90 12.675 1.293)"/><circle cx="24.057" cy="35.18" r="1.293" transform="rotate(-90 24.057 35.18)"/><circle cx="24.057" cy="1.293" r="1.293" transform="rotate(-90 24.057 1.293)"/><circle cx="35.438" cy="35.18" r="1.293" transform="rotate(-90 35.438 35.18)"/><circle cx="35.438" cy="1.293" r="1.293" transform="rotate(-90 35.438 1.293)"/><circle cx="46.82" cy="35.18" r="1.293" transform="rotate(-90 46.82 35.18)"/><circle cx="46.82" cy="1.294" r="1.293" transform="rotate(-90 46.82 1.294)"/><circle cx="68.807" cy="35.18" r="1.293" transform="rotate(-90 68.807 35.18)"/><circle cx="68.807" cy="1.294" r="1.293" transform="rotate(-90 68.807 1.294)"/><circle cx="57.944" cy="35.18" r="1.293" transform="rotate(-90 57.944 35.18)"/><circle cx="57.944" cy="1.294" r="1.293" transform="rotate(-90 57.944 1.294)"/></g></svg>