<svg xmlns="http://www.w3.org/2000/svg" width="1em" height="1em" viewBox="0 0 24 24">
	<path fill="currentColor" d="M1 11C1 5.478 5.478 1 11 1s10 4.478 10 10q0 .507-.05 1h-3.7A3.25 3.25 0 0 0 14 15.25v5.292A10 10 0 0 1 11 21C5.478 21 1 16.522 1 11m9.25 1.5h4a.75.75 0 0 0 0-1.5H11V5.75a.75.75 0 0 0-1.5 0v6c0 .414.336.75.75.75m11.5.5h-4.5A2.25 2.25 0 0 0 15 15.25v6.5A2.25 2.25 0 0 0 17.25 24h4.5A2.25 2.25 0 0 0 24 21.75v-6.5A2.25 2.25 0 0 0 21.75 13m-.25 9h-4a.5.5 0 0 1 0-1h4a.5.5 0 0 1 0 1m0-3h-4a.5.5 0 0 1 0-1h4a.5.5 0 0 1 0 1m0-3h-4a.5.5 0 0 1 0-1h4a.5.5 0 0 1 0 1" />
</svg>