<?xml version="1.0" encoding="UTF-8" standalone="no"?>
<svg xmlns="http://www.w3.org/2000/svg" style="isolation:isolate" viewBox="0 0 18 18" width="18pt" height="18pt">
    <defs>
        <clipPath id="_clipPath_Y4nyNqHDY7nfqkoqfNJQfQFuoBicMShF">
            <rect width="18" height="18"/>
        </clipPath>
    </defs>
    <g clip-path="url(#_clipPath_Y4nyNqHDY7nfqkoqfNJQfQFuoBicMShF)">
        <circle vector-effect="non-scaling-stroke" cx="9" cy="9" r="9" fill="rgb(20,189,58)"/>
        <path d=" M 9 0 C 7.234 0 5.586 0.511 4.194 1.393 C 1.675 2.99 0 5.803 0 9 C 0 13.963 4.037 18 9 18 C 13.963 18 18 13.963 18 9 C 18 4.037 13.963 0 9 0 Z  M 2.497 5.254 C 3.791 3.008 6.215 1.5 9 1.5 C 13.151 1.5 16.5 4.849 16.5 9 C 16.5 13.151 13.151 16.5 9 16.5 C 4.849 16.5 1.5 13.151 1.5 9 C 1.5 7.634 1.863 6.355 2.497 5.254 Z  M 12.141 4.547 C 12.025 4.566 11.922 4.635 11.86 4.735 L 8.179 10.195 L 6.445 8.485 C 6.296 8.259 6.009 8.241 5.86 8.39 L 5.179 9.071 C 5.03 9.296 5.03 9.601 5.179 9.75 L 7.804 12.375 C 7.954 12.452 8.165 12.61 8.39 12.61 C 8.54 12.61 8.78 12.53 8.93 12.305 L 13.43 5.695 C 13.579 5.47 13.494 5.259 13.196 5.11 L 12.446 4.57 C 12.369 4.532 12.252 4.529 12.14 4.547 L 12.141 4.547 Z " fill="rgb(255,255,255)"/>
    </g>
</svg>
