<svg xmlns="http://www.w3.org/2000/svg" width="1em" height="1em" viewBox="0 0 24 24">
	<g fill="none" fill-rule="evenodd">
		<path d="M24 0v24H0V0zM12.593 23.258l-.011.002l-.071.035l-.02.004l-.014-.004l-.071-.035q-.016-.005-.024.005l-.004.01l-.017.428l.005.02l.01.013l.104.074l.015.004l.012-.004l.104-.074l.012-.016l.004-.017l-.017-.427q-.004-.016-.017-.018m.265-.113l-.013.002l-.185.093l-.01.01l-.003.011l.018.43l.005.012l.008.007l.201.093q.019.005.029-.008l.004-.014l-.034-.614q-.005-.019-.02-.022m-.715.002a.02.02 0 0 0-.027.006l-.006.014l-.034.614q.001.018.017.024l.015-.002l.201-.093l.01-.008l.004-.011l.017-.43l-.003-.012l-.01-.01z" />
		<path fill="currentColor" d="M4 3a2 2 0 0 0-2 2v14a2 2 0 0 0 2 2h16a2 2 0 0 0 2-2V5a2 2 0 0 0-2-2zm4.625 5.63a1.235 1.235 0 0 1 1.715-.992c.504.216 1.568.702 2.916 1.48a28 28 0 0 1 2.74 1.786a1.234 1.234 0 0 1 0 1.98a28 28 0 0 1-2.74 1.784a28 28 0 0 1-2.916 1.482a1.234 1.234 0 0 1-1.715-.992a29 29 0 0 1-.176-3.264c0-1.551.112-2.719.176-3.264" />
	</g>
</svg>