<svg xmlns="http://www.w3.org/2000/svg" width="1440" height="1380" fill="none"><g filter="url(#a)"><path fill="#175CFF" fill-opacity=".12" d="M740.651 755.015c0 144.958-228.079 341.745-325.886 341.745S72 665.213 72 520.255s357.655-285.946 455.462-285.946c97.806 0 213.189 375.748 213.189 520.706"/></g><g filter="url(#b)"><path fill="#175CFF" fill-opacity=".12" d="M650.42 457.949c0 99.649 248.521 234.929 355.09 234.929 106.58 0 373.49-296.662 373.49-396.31S989.29 100 882.717 100 650.42 358.301 650.42 457.949"/></g><g filter="url(#c)"><path fill="#175CFF" fill-opacity=".12" d="M673.988 1064.08c0 91.58 120.815 215.92 172.624 215.92s181.568-272.66 181.568-364.246c0-91.587-189.455-180.665-241.264-180.665S673.988 972.492 673.988 1064.08"/></g><defs><filter id="a" width="868.651" height="1062.46" x="-28" y="134.309" color-interpolation-filters="sRGB" filterUnits="userSpaceOnUse"><feFlood flood-opacity="0" result="BackgroundImageFix"/><feBlend in="SourceGraphic" in2="BackgroundImageFix" result="shape"/><feGaussianBlur result="effect1_foregroundBlur_1_3156" stdDeviation="50"/></filter><filter id="b" width="928.58" height="792.878" x="550.42" y="0" color-interpolation-filters="sRGB" filterUnits="userSpaceOnUse"><feFlood flood-opacity="0" result="BackgroundImageFix"/><feBlend in="SourceGraphic" in2="BackgroundImageFix" result="shape"/><feGaussianBlur result="effect1_foregroundBlur_1_3156" stdDeviation="50"/></filter><filter id="c" width="554.19" height="744.911" x="573.988" y="635.089" color-interpolation-filters="sRGB" filterUnits="userSpaceOnUse"><feFlood flood-opacity="0" result="BackgroundImageFix"/><feBlend in="SourceGraphic" in2="BackgroundImageFix" result="shape"/><feGaussianBlur result="effect1_foregroundBlur_1_3156" stdDeviation="50"/></filter></defs></svg>