<svg xmlns="http://www.w3.org/2000/svg" width="24" height="24" style="isolation:isolate" viewBox="0 0 18 18"><circle cx="9" cy="9" r="8" fill="#14BD3A" vector-effect="non-scaling-stroke"/><path fill="#FFF" d="M9 0a8.95 8.95 0 0 0-4.806 1.393A9 9 0 0 0 0 9c0 4.963 4.037 9 9 9s9-4.037 9-9-4.037-9-9-9M2.497 5.254A7.49 7.49 0 0 1 9 1.5c4.151 0 7.5 3.349 7.5 7.5s-3.349 7.5-7.5 7.5A7.49 7.49 0 0 1 1.5 9c0-1.366.363-2.645.997-3.746m9.644-.707a.41.41 0 0 0-.281.188l-3.681 5.46-1.734-1.71c-.149-.226-.436-.244-.585-.095l-.681.681c-.149.225-.149.53 0 .679l2.625 2.625c.15.077.361.235.586.235.15 0 .39-.08.54-.305l4.5-6.61c.149-.225.064-.436-.234-.585l-.75-.54a.55.55 0 0 0-.306-.023z"/></svg>