<svg xmlns="http://www.w3.org/2000/svg" width="1440" height="1113" fill="none"><g clip-path="url(#a)" opacity=".18"><mask id="b" width="1920" height="2265" x="0" y="-505" maskUnits="userSpaceOnUse" style="mask-type:alpha"><rect width="1920" height="2264.01" y="-504.505" fill="#181059" rx="24"/></mask><g stroke="#79747E" mask="url(#b)"><path d="M596.918-435.012c167.385 57.007-102.125 556.501 708.922 556.501 428.31 0 336 408.101 594.46 437.057"/><path d="M805.539-667.383c167.384 57.007-102.125 556.501 708.921 556.501 428.31 0 336 408.101 594.46 437.057M-245.899-184.897C25.769-221.076 581.976-221.128 470.409-7.81 285.793 345.178 720.461 691.969 1880.87 760.518"/><path d="M-620.308-53.33c335.812-44.648 1023.345-44.712 885.436 218.546C36.923 600.844 574.221 1028.82 2008.62 1113.42"/><path d="M-967.385 166.79c380.146-50.561 1158.45-50.634 1002.334 247.485-258.334 493.313 349.9 977.965 1973.671 1073.765"/></g></g><defs><clipPath id="a"><path fill="#fff" d="M0 0h1440v1113H0z"/></clipPath></defs></svg>