<svg xmlns="http://www.w3.org/2000/svg" width="37" height="37" fill="none"><path fill="#fff" d="M12.355 2.061H5.211A3.505 3.505 0 0 0 1.724 5.55v7.144A3.505 3.505 0 0 0 5.21 16.18h7.144a3.505 3.505 0 0 0 3.487-3.487V5.605c.057-1.969-1.518-3.544-3.487-3.544m1.012 10.688c0 .562-.45 1.012-1.012 1.012H5.211c-.562 0-1.012-.45-1.012-1.012V5.605c0-.562.45-1.012 1.012-1.012h7.144c.563 0 1.012.45 1.012 1.012zm17.72-10.688h-7.143a3.505 3.505 0 0 0-3.488 3.488v7.144a3.505 3.505 0 0 0 3.488 3.487h7.143a3.505 3.505 0 0 0 3.488-3.487V5.605c0-1.969-1.575-3.544-3.488-3.544M32.1 12.75c0 .562-.45 1.012-1.013 1.012h-7.143c-.563 0-1.013-.45-1.013-1.012V5.605c0-.562.45-1.012 1.012-1.012h7.144c.563 0 1.013.45 1.013 1.012zm-19.745 7.255H5.211a3.505 3.505 0 0 0-3.487 3.488v7.143a3.505 3.505 0 0 0 3.487 3.488h7.144a3.505 3.505 0 0 0 3.487-3.488V23.55c.057-1.969-1.518-3.544-3.487-3.544m1.012 10.688c0 .562-.45 1.012-1.012 1.012H5.211c-.562 0-1.012-.45-1.012-1.012V23.55c0-.563.45-1.013 1.012-1.013h7.144c.563 0 1.012.45 1.012 1.013zm17.719-10.689h-7.143a3.505 3.505 0 0 0-3.488 3.488v7.143a3.505 3.505 0 0 0 3.488 3.488h7.143a3.505 3.505 0 0 0 3.488-3.488V23.55c0-1.969-1.575-3.544-3.488-3.544M32.1 30.693c0 .562-.45 1.012-1.013 1.012h-7.143c-.563 0-1.013-.45-1.013-1.012v-7.144c0-.563.45-1.013 1.012-1.013h7.144c.563 0 1.013.45 1.013 1.013z"/></svg>