<svg xmlns="http://www.w3.org/2000/svg" xml:space="preserve" width="1125.9" height="286.25"><path fill="#231f20" d="M462.682 170.713c0 10.738-1.544 20.503-4.617 29.302q-4.621 13.198-12.937 22.433c-5.54 6.163-12.1 10.953-19.664 14.385-7.565 3.435-15.93 5.147-25.075 5.147-9.15 0-17.513-1.712-25.076-5.147-7.569-3.432-14.122-8.222-19.662-14.385-5.544-6.158-9.861-13.633-12.938-22.433q-4.618-13.196-4.616-29.302c0-10.729 1.536-20.497 4.616-29.297 3.077-8.8 7.394-16.323 12.938-22.57q8.31-9.37 19.662-14.515c7.563-3.432 15.925-5.148 25.076-5.148 9.145 0 17.51 1.716 25.075 5.148 7.564 3.43 14.124 8.269 19.664 14.515q8.316 9.37 12.937 22.57c3.073 8.8 4.617 18.568 4.617 29.297m-18.213 0q0-25.597-11.88-40.78c-7.917-10.116-18.653-15.176-32.2-15.176q-20.328.001-32.2 15.176-11.882 15.183-11.88 40.78-.002 25.604 11.88 40.648 11.872 15.046 32.2 15.046c13.547 0 24.283-5.017 32.2-15.046q11.88-15.044 11.88-40.648m101.877-71.005c5.628 0 10.957.44 15.97 1.321q7.525 1.32 10.423 2.636l-3.428 14.781c-1.41-.7-4.27-1.453-8.584-2.242q-6.464-1.189-17.02-1.19-11.084-.001-17.817 1.588-6.732 1.584-8.846 2.636v119.573H499.89V108.682c4.396-1.936 10.467-3.913 18.216-5.94 7.737-2.02 17.158-3.034 28.24-3.034m71.679 10.826c2.99-2.28 7.789-4.702 14.387-7.255 6.597-2.547 14.388-3.828 23.362-3.828 9.848 0 18.61 1.764 26.262 5.278 7.652 3.524 14.12 8.448 19.401 14.781q7.917 9.505 12.006 22.566c2.73 8.713 4.098 18.264 4.098 28.64 0 11.086-1.638 21.03-4.885 29.83-3.258 8.798-7.835 16.28-13.724 22.432-5.901 6.167-12.937 10.87-21.117 14.127q-12.28 4.878-27.32 4.878c-12.143 0-22.172-.79-30.095-2.372-7.92-1.587-14.431-3.254-19.53-5.015V47.668l17.155-3.386zm0 112.183c2.64.885 6.555 1.716 11.749 2.507 5.185.789 12.009 1.186 20.456 1.186 14.779 0 26.657-4.786 35.634-14.382q13.457-14.386 13.459-41.313 0-11.344-2.372-21.51c-1.588-6.77-4.142-12.669-7.659-17.685-3.521-5.017-8.141-9.017-13.854-12.01-5.725-2.99-12.807-4.49-21.252-4.49-4.05 0-7.913.4-11.614 1.193-3.692.788-7.125 1.805-10.292 3.034-3.17 1.231-5.94 2.554-8.316 3.959-2.37 1.41-4.353 2.732-5.94 3.963zm136.729-115.609q7.65-2.11 20.59-4.755c8.62-1.754 19.18-2.64 31.673-2.64q15.57.002 25.998 4.49c6.95 2.994 12.493 7.255 16.63 12.8 4.136 5.543 7.082 12.19 8.847 19.928q2.634 11.617 2.634 25.606v76.28h-17.154v-70.74q.001-14.51-1.98-24.549c-1.321-6.68-3.522-12.137-6.6-16.358q-4.616-6.34-12.14-9.113c-5.014-1.844-11.312-2.77-18.873-2.77q-12.146.001-20.988 1.323c-5.894.879-9.722 1.675-11.48 2.37v119.838h-17.157zM896.75 170.45q0-17.947 5.145-31.28 5.15-13.323 13.465-22.301c5.544-5.981 11.88-10.43 19.005-13.328 7.123-2.904 14.473-4.357 22.04-4.357 16.713 0 30.046 5.456 39.986 16.362 9.94 10.915 14.916 27.718 14.916 50.419 0 1.41-.044 2.81-.13 4.221a52 52 0 0 1-.398 3.959h-95.815q.789 25.08 12.406 38.536 11.61 13.464 36.955 13.465c9.321 0 16.714-.878 22.17-2.64 5.452-1.757 9.415-3.256 11.875-4.485l3.172 14.777c-2.466 1.413-7.087 3.081-13.86 5.017-6.773 1.932-14.74 2.903-23.89 2.903-11.966 0-22.172-1.763-30.62-5.28-8.442-3.519-15.398-8.448-20.848-14.782q-8.184-9.503-11.88-22.567c-2.465-8.707-3.693-18.258-3.693-28.64m96.87-10.825c-.355-14.248-3.692-25.336-10.028-33.253q-9.505-11.88-26.926-11.88c-6.161 0-11.66 1.236-16.497 3.697-4.841 2.463-9.068 5.764-12.67 9.895q-5.408 6.208-8.447 14.387-3.036 8.189-3.563 17.154zm72.059-57.276h54.377v14.518h-54.377v72.588c0 7.745.664 14.037 1.98 18.871 1.32 4.843 3.212 8.579 5.678 11.221q3.696 3.958 8.97 5.276c3.517.885 7.393 1.323 11.62 1.323 7.208 0 13.019-.835 17.416-2.51s7.828-3.21 10.296-4.616l4.22 14.251c-2.467 1.585-6.773 3.393-12.933 5.412s-12.845 3.035-20.06 3.035q-12.668.002-21.248-3.3-8.577-3.297-13.723-10.033c-3.432-4.486-5.854-10.068-7.262-16.758q-2.11-10.028-2.11-23.753V47.663l17.156-3.39v58.072"/><path fill="#80cc28" d="m262.047 146.4-.495-.688-3.006 2.012.454.73c10.919 17.316 14.726 37.896 10.72 57.94-8.595 42.98-50.556 70.954-93.52 62.376-42.974-8.584-70.953-50.536-62.368-93.513a79.1 79.1 0 0 1 20.093-38.89l.532-.565-2.957-3.576-.682.624c-13.826 12.67-23.433 29.642-27.054 47.781-9.53 47.744 21.554 94.342 69.296 103.88a89.6 89.6 0 0 0 17.466 1.734c17.36 0 34.246-5.139 48.83-14.865 19.615-13.087 32.962-33.034 37.584-56.164 4.785-23.889-.643-48.97-14.893-68.816"/><path fill="#bfe47c" d="M174.436 142.454c-4.058-18.292-13.95-35.098-27.854-47.323-17.699-15.541-40.426-23.3-63.972-21.77-23.533 1.516-45.07 12.114-60.641 29.843C6.409 120.924-1.324 143.646.193 167.18c1.006 15.495 6.036 30.428 14.548 43.19a88.8 88.8 0 0 0 15.298 17.45c16.097 14.143 36.815 21.93 58.341 21.93 2.889 0 5.82-.145 8.706-.433l.852-.078-.246-3.61-.853.034c-20.479.74-40.22-6.23-55.543-19.69-15.95-14.015-25.491-33.401-26.865-54.591-1.371-21.173 5.59-41.627 19.601-57.59 28.923-32.93 79.249-36.183 112.179-7.254a79.17 79.17 0 0 1 23.61 36.82l.22.731 4.598-.724z"/><path fill="#05a1e6" d="M252.447 60.029c-7.57-22.345-23.38-40.402-44.516-50.848-13.9-6.868-29.363-9.986-44.676-8.996-7.676.49-15.335 2.01-22.763 4.524-23.088 7.813-42.092 25.06-52.14 47.318l-.348.776 3.239 1.586.399-.753c9.545-18.116 25.463-31.702 44.822-38.254 20.104-6.806 41.664-5.378 60.703 4.027 19.03 9.4 33.26 25.655 40.075 45.772 14.055 41.51-8.285 86.718-49.798 100.776a79.3 79.3 0 0 1-43.7 2.037l-.745-.17-1.674 4.34.893.282a89.2 89.2 0 0 0 26.83 4.106c9.668 0 19.116-1.535 28.085-4.569 22.336-7.56 40.392-23.372 50.844-44.518 10.447-21.141 12.034-45.09 4.47-67.436"/></svg>