<svg xmlns="http://www.w3.org/2000/svg" width="158" height="40" fill="none"><g clip-path="url(#a)"><path fill="#4A6CF7" d="M15.606 3.333C15.606 1.492 17.108 0 18.963 0h1.678c11.125 0 20.142 8.954 20.142 20v16.667c0 1.841-1.502 3.333-3.357 3.333h-1.678c-11.124 0-20.142-8.954-20.142-20z" opacity=".56"/><path fill="#4A6CF7" d="M17.285 40c9.27 0 16.784-7.462 16.784-16.667S26.555 6.667 17.285 6.667.5 14.128.5 23.333 8.015 40 17.285 40" opacity=".88"/><path fill="#fff" d="M63.738 31.779h5.6L61.475 10h-6.122l-7.856 21.779h5.536l1.302-3.847h8.1zm-2.662-7.942h-5.349l2.655-7.973zm18.599 1.458-3.99-10.828h-5.909l7.025 16.722L72.837 40h5.697l10.827-25.533h-5.723zm16.885-1.552c0-2.978 1.456-3.846 3.963-3.846h1.45V14.28c-2.32 0-4.208 1.241-5.413 3.072v-2.886h-5.291V31.78h5.29zm24.831-.62c0-5.491-3.893-8.904-8.971-8.904-5.04 0-8.971 3.413-8.971 8.904s3.841 8.904 8.913 8.904 9.029-3.413 9.029-8.904m-12.554 0c0-2.947 1.669-4.312 3.583-4.312 1.856 0 3.59 1.365 3.59 4.312 0 2.916-1.76 4.312-3.648 4.312-1.921 0-3.525-1.396-3.525-4.312m24.012.683c0 5.615 3.648 8.19 8.107 8.19 4.454 0 8.134-2.575 8.134-8.19v-13.65h-2.817v13.68c0 3.972-2.101 5.678-5.291 5.678-3.183 0-5.317-1.706-5.317-5.677V10.155h-2.816zm20.939 7.973h2.81V10.155h-2.81z"/></g><defs><clipPath id="a"><path fill="#fff" d="M.5 0h157v40H.5z"/></clipPath></defs></svg>