<svg xmlns="http://www.w3.org/2000/svg" width="174" height="40" fill="none"><g clip-path="url(#a)"><path fill="url(#b)" d="M36.5 20c0-9.941-8.059-18-18-18S.5 10.059.5 20s8.059 18 18 18 18-8.059 18-18"/><path fill="url(#c)" fill-opacity=".56" d="M36.5 20c0-9.941-8.059-18-18-18S.5 10.059.5 20s8.059 18 18 18 18-8.059 18-18"/><path fill="#fff" d="M18.787 8.75c2.85 0 5.54 1.053 7.623 2.973a.276.276 0 0 1 .006.398l-4.408 4.408a.295.295 0 0 1-.395.014A4.47 4.47 0 0 0 14.32 20H7.53c0-6.203 5.05-11.25 11.256-11.25M14.32 20a4.473 4.473 0 0 0 4.017 4.442c.15.015.27.139.27.29v6.232c0 .157-.13.284-.286.278C12.329 30.996 7.53 26.047 7.53 20z"/><path fill="#fff" d="M25.475 20.893H22.82a.28.28 0 0 0-.28.281v2.653a.28.28 0 0 0 .28.281h2.655a.28.28 0 0 0 .28-.281v-2.653a.28.28 0 0 0-.28-.28" opacity=".56"/><path fill="#fff" d="M29.047 20.893h-2.655a.28.28 0 0 0-.28.281v2.653a.28.28 0 0 0 .28.281h2.655a.28.28 0 0 0 .281-.281v-2.653a.28.28 0 0 0-.281-.28" opacity=".4"/><path fill="#fff" d="M25.475 24.465H22.82a.28.28 0 0 0-.28.281v2.653c0 .155.125.28.28.28h2.655a.28.28 0 0 0 .28-.28v-2.653a.28.28 0 0 0-.28-.281" opacity=".72"/><path fill="#fff" d="M21.901 24.465h-2.654a.28.28 0 0 0-.281.281v2.653c0 .155.126.28.281.28h2.654a.28.28 0 0 0 .282-.28v-2.653a.28.28 0 0 0-.282-.281" opacity=".88"/><path fill="#fff" d="M29.047 24.465h-2.655a.28.28 0 0 0-.28.281v2.653c0 .155.125.28.28.28h2.655a.28.28 0 0 0 .281-.28v-2.653a.28.28 0 0 0-.281-.281" opacity=".56"/><path fill="#fff" d="M25.475 28.035H22.82a.28.28 0 0 0-.28.28v2.653a.28.28 0 0 0 .28.282h2.655a.28.28 0 0 0 .28-.282v-2.652a.28.28 0 0 0-.28-.281" opacity=".88"/><path fill="#fff" d="M21.901 28.035h-2.654a.28.28 0 0 0-.281.28v2.653c0 .156.126.282.281.282h2.654a.28.28 0 0 0 .282-.282v-2.652a.28.28 0 0 0-.282-.281" opacity=".96"/><path fill="#fff" d="M29.047 28.035h-2.655a.28.28 0 0 0-.28.28v2.653a.28.28 0 0 0 .28.282h2.655a.28.28 0 0 0 .281-.282v-2.652a.28.28 0 0 0-.281-.281" opacity=".72"/><path fill="#fff" d="M57.442 12.125h2.835v16.254q0 1.56-.726 2.898a7.5 7.5 0 0 1-1.924 2.347 9 9 0 0 1-2.767 1.559 9.4 9.4 0 0 1-3.24.567q-1.755 0-3.392-.74a9.4 9.4 0 0 1-2.869-1.953q-1.215-1.213-1.755-2.725l2.6-1.102a4.75 4.75 0 0 0 1.147 1.953 6.3 6.3 0 0 0 1.957 1.386q1.131.52 2.312.52 1.113 0 2.143-.363a6.4 6.4 0 0 0 1.873-1.008 4.6 4.6 0 0 0 1.316-1.496q.49-.85.49-1.843v-3.134a6.8 6.8 0 0 1-2.278 2.205q-1.4.834-3.274.835a8.7 8.7 0 0 1-3.358-.646 8.7 8.7 0 0 1-2.75-1.78 8.6 8.6 0 0 1-1.857-2.646A7.7 7.7 0 0 1 43.25 20q0-1.717.675-3.213a8.4 8.4 0 0 1 1.856-2.646 8.6 8.6 0 0 1 2.75-1.796 8.7 8.7 0 0 1 3.359-.645q1.873 0 3.274.835a6.6 6.6 0 0 1 2.278 2.204zm-5.535 13.592q1.636 0 2.835-.787a5.3 5.3 0 0 0 1.873-2.095A6.2 6.2 0 0 0 57.273 20q0-1.576-.675-2.866a5.17 5.17 0 0 0-1.873-2.08q-1.198-.787-2.818-.787a5.63 5.63 0 0 0-2.903.772 5.8 5.8 0 0 0-2.092 2.079q-.76 1.291-.76 2.882 0 1.59.777 2.898a6.04 6.04 0 0 0 2.092 2.063q1.317.756 2.886.756m11.077 2.158v-15.75h2.835v1.969a6.36 6.36 0 0 1 2.262-1.748 6.7 6.7 0 0 1 2.97-.662 7.5 7.5 0 0 1 1.89.236l-1.148 2.646a4.8 4.8 0 0 0-1.35-.204q-1.266 0-2.329.582a4.5 4.5 0 0 0-1.67 1.544 3.95 3.95 0 0 0-.625 2.173v9.214zm23.391-15.75h2.835v15.75h-2.835l-.118-2.662a6.2 6.2 0 0 1-2.194 2.221q-1.383.85-3.308.85a9.3 9.3 0 0 1-3.476-.645 9.5 9.5 0 0 1-2.868-1.811 8.6 8.6 0 0 1-1.924-2.678 7.7 7.7 0 0 1-.692-3.26q0-1.686.675-3.182a8.1 8.1 0 0 1 1.873-2.614 8.9 8.9 0 0 1 2.801-1.764 9 9 0 0 1 3.409-.646q1.992 0 3.493.882a7.2 7.2 0 0 1 2.43 2.252zm-5.67 13.592q1.671 0 2.886-.756a5.13 5.13 0 0 0 1.89-2.079q.675-1.307.675-2.882 0-1.606-.675-2.898a5.14 5.14 0 0 0-1.907-2.063q-1.215-.772-2.87-.772-1.67 0-3.037.772a6 6 0 0 0-2.177 2.079q-.793 1.291-.793 2.882 0 1.59.827 2.898a6.15 6.15 0 0 0 2.194 2.063 6.07 6.07 0 0 0 2.987.756m21.56-13.592h3.004L96.038 35.75h-3.004l3.054-7.875-6.058-15.75h3.105l4.37 12.112zm17.343 0h2.835v16.254q0 1.56-.726 2.898a7.5 7.5 0 0 1-1.924 2.347 9 9 0 0 1-2.767 1.559 9.4 9.4 0 0 1-3.24.567 8.15 8.15 0 0 1-3.392-.74 9.4 9.4 0 0 1-2.869-1.953q-1.215-1.213-1.755-2.725l2.599-1.102a4.74 4.74 0 0 0 1.148 1.953 6.3 6.3 0 0 0 1.957 1.386q1.13.52 2.312.52a6.4 6.4 0 0 0 2.143-.363 6.4 6.4 0 0 0 1.873-1.008 4.6 4.6 0 0 0 1.316-1.496q.49-.85.49-1.843v-3.134a6.8 6.8 0 0 1-2.278 2.205q-1.4.834-3.274.835a8.7 8.7 0 0 1-3.358-.646 8.7 8.7 0 0 1-2.751-1.78 8.6 8.6 0 0 1-1.856-2.646 7.7 7.7 0 0 1-.675-3.213q0-1.717.675-3.213a8.4 8.4 0 0 1 1.856-2.646 8.6 8.6 0 0 1 2.751-1.796 8.7 8.7 0 0 1 3.358-.645q1.873 0 3.274.835a6.6 6.6 0 0 1 2.278 2.204zm-5.535 13.592q1.636 0 2.835-.787a5.3 5.3 0 0 0 1.873-2.095 6.2 6.2 0 0 0 .658-2.835q0-1.576-.675-2.866a5.17 5.17 0 0 0-1.873-2.08q-1.198-.787-2.818-.787a5.64 5.64 0 0 0-2.903.772 5.8 5.8 0 0 0-2.092 2.079q-.76 1.291-.76 2.882 0 1.59.777 2.898a6.04 6.04 0 0 0 2.092 2.063q1.317.756 2.886.756m11.077 2.158v-15.75h2.835v1.969a6.4 6.4 0 0 1 2.262-1.748 6.7 6.7 0 0 1 2.97-.662q.978 0 1.89.236l-1.148 2.646a4.7 4.7 0 0 0-1.35-.204q-1.266 0-2.329.582a4.5 4.5 0 0 0-1.67 1.544 3.95 3.95 0 0 0-.625 2.173v9.214zm10.68-15.75h2.835v15.75h-2.835zm1.452-2.567q-.675 0-1.131-.41a1.32 1.32 0 0 1-.456-1.023q0-.615.456-1.024t1.114-.41 1.114.41q.455.41.455 1.024t-.455 1.023q-.44.41-1.097.41m17.441-5.308h2.835v23.625h-2.835v-2.677a6.6 6.6 0 0 1-2.312 2.236q-1.452.85-3.409.85a9.1 9.1 0 0 1-3.443-.645 9.3 9.3 0 0 1-2.835-1.78 8.6 8.6 0 0 1-1.906-2.646 7.55 7.55 0 0 1-.692-3.213q0-1.717.692-3.213a8.3 8.3 0 0 1 1.906-2.646 9.1 9.1 0 0 1 2.835-1.796 9.1 9.1 0 0 1 3.443-.645q1.957 0 3.409.85a6.6 6.6 0 0 1 2.312 2.237zm-5.687 21.467q1.67 0 2.885-.756a5.1 5.1 0 0 0 1.89-2.079q.675-1.307.675-2.882 0-1.607-.675-2.898a5.13 5.13 0 0 0-1.907-2.063q-1.215-.772-2.868-.772-1.671 0-3.038.772a6 6 0 0 0-2.16 2.079q-.81 1.291-.81 2.882 0 1.59.827 2.898a6.15 6.15 0 0 0 2.194 2.063 6.07 6.07 0 0 0 2.987.756m16.367 2.457a9.6 9.6 0 0 1-2.667-.472 8 8 0 0 1-2.261-1.182q-.961-.756-1.401-1.732l2.43-.977q.254.535.912 1.008a5.6 5.6 0 0 0 1.518.756 5.5 5.5 0 0 0 1.739.284q.928 0 1.738-.268.81-.267 1.316-.787.523-.536.523-1.276 0-.788-.574-1.229-.556-.456-1.417-.708a41 41 0 0 0-1.721-.504 20 20 0 0 1-3.105-.977q-1.368-.583-2.16-1.465-.777-.898-.777-2.283 0-1.465.861-2.536.878-1.07 2.295-1.654a7.9 7.9 0 0 1 3.037-.583q2.043 0 3.73.82 1.688.818 2.514 2.22l-2.278 1.244a2.8 2.8 0 0 0-.877-.992 4.7 4.7 0 0 0-1.35-.693 5.2 5.2 0 0 0-1.553-.268 5.6 5.6 0 0 0-1.839.237q-.844.267-1.367.819-.506.536-.506 1.338 0 .788.54 1.197.556.41 1.434.662a60 60 0 0 1 1.941.551 23 23 0 0 1 2.868 1.055q1.333.6 2.143 1.497.828.897.81 2.22 0 1.45-.928 2.536-.928 1.071-2.413 1.638-1.468.567-3.155.504"/></g><defs><linearGradient id="b" x1="18.5" x2="18.5" y1="2" y2="38" gradientUnits="userSpaceOnUse"><stop stop-color="#3558EA"/><stop offset="1" stop-color="#00F"/></linearGradient><linearGradient id="c" x1="23.289" x2="7.433" y1="7.229" y2="54.475" gradientUnits="userSpaceOnUse"><stop offset=".216" stop-color="#1E1983" stop-opacity="0"/><stop offset=".447" stop-color="#1E1983" stop-opacity=".19"/><stop offset=".62" stop-color="#1E1983"/></linearGradient><clipPath id="a"><path fill="#fff" d="M.5 0h173v40H.5z"/></clipPath></defs></svg>