<svg xmlns="http://www.w3.org/2000/svg" width="188" height="40" fill="none"><g clip-path="url(#a)"><mask id="b" width="185" height="30" x="1" y="5" maskUnits="userSpaceOnUse" style="mask-type:luminance"><path fill="#fff" d="M185.95 5H1.5v30h184.45z"/></mask><g mask="url(#b)"><path fill="#fff" d="M45.515 7.306h-4.35v24.84H55.92v-4.008H45.515zm15.397 4.686c1.359 0 2.481-1.122 2.481-2.519A2.465 2.465 0 0 0 60.913 7c-1.428 0-2.55 1.092-2.55 2.48 0 1.39 1.13 2.512 2.55 2.512m-2.06 20.153h4.144V15.351h-4.145zm12.571 0v-9.038c0-2.718 1.557-4.489 4.114-4.489 2.145 0 3.535 1.359 3.535 4.183v9.352h4.145V21.809c0-4.351-2.176-6.962-6.39-6.962-2.275 0-4.313.985-5.366 2.687l-.344-2.175h-3.84v16.794h4.146zm23.381.443c4.382 0 7.443-2.206 8.153-5.886h-3.84c-.48 1.596-1.97 2.481-4.252 2.481-2.755 0-4.313-1.496-4.618-4.45l12.641-.038v-1.252c0-5.237-3.198-8.603-8.229-8.603-4.923 0-8.358 3.633-8.358 8.908 0 5.199 3.503 8.84 8.503 8.84m-.107-14.344c2.481 0 4.077 1.527 4.077 3.84h-8.428c.405-2.511 1.901-3.84 4.352-3.84m13.58-6.252c1.358 0 2.48-1.122 2.48-2.519A2.464 2.464 0 0 0 108.279 7c-1.428 0-2.542 1.092-2.542 2.48 0 1.39 1.106 2.512 2.542 2.512m-2.077 20.153h4.145V15.351h-4.145zm7.451-8.428c0 5.336 3.328 8.87 8.427 8.87 4.382 0 7.649-2.686 8.153-6.595h-4.183c-.443 1.84-1.901 2.855-3.978 2.855-2.648 0-4.282-1.97-4.282-5.13s1.771-5.167 4.42-5.167c1.969 0 3.366.984 3.84 2.893h4.145c-.443-4.046-3.573-6.596-8.153-6.596-4.954 0-8.389 3.672-8.389 8.87m18.679.001c0 5.236 3.771 8.84 8.977 8.84 5.199 0 8.977-3.596 8.977-8.84 0-5.237-3.771-8.84-8.977-8.84-5.198.008-8.977 3.603-8.977 8.84m4.153 0c0-3.061 1.969-5.13 4.824-5.13s4.825 2.076 4.825 5.13-1.97 5.13-4.825 5.13c-2.855.007-4.824-2.07-4.824-5.13m21.221 8.427v-9.038c0-2.718 1.557-4.489 4.115-4.489 2.145 0 3.534 1.359 3.534 4.183v9.352h4.145V21.809c0-4.351-2.176-6.962-6.389-6.962-2.275 0-4.313.985-5.367 2.687l-.343-2.175h-3.84v16.794h4.145zm28.244-5.061c0 3.397-2.885 5.511-7.03 5.511-4.183 0-6.825-2.252-6.832-5.534h3.931c.031 1.458 1.122 2.382 3.023 2.382 1.931 0 2.992-.787 2.992-2.008 0-.855-.435-1.458-1.931-1.801l-3.031-.718c-3.022-.68-4.48-2.107-4.48-4.794 0-3.298 2.778-5.275 6.656-5.275 3.771 0 6.313 2.183 6.351 5.443h-3.939c-.023-1.427-.984-2.344-2.58-2.344-1.626 0-2.58.749-2.58 2 0 .955.756 1.558 2.176 1.901l3.03.718c2.603.588 4.031 1.748 4.221 3.954z"/><path fill="#6566FF" d="M25.217 31.452a2.787 2.787 0 0 0 0-3.946L6.263 8.552a2.787 2.787 0 0 0-3.946 0 2.787 2.787 0 0 0 0 3.946L21.27 31.452a2.787 2.787 0 0 0 3.946 0m-.502-13.992a2.787 2.787 0 0 0 0-3.947L17.019 5.82a2.787 2.787 0 0 0-3.947 0 2.787 2.787 0 0 0 0 3.946l7.695 7.695a2.8 2.8 0 0 0 3.947 0M14.462 34.185a2.787 2.787 0 0 0 0-3.947l-7.695-7.694a2.787 2.787 0 0 0-3.947 0 2.787 2.787 0 0 0 0 3.946l7.695 7.695a2.787 2.787 0 0 0 3.947 0"/></g></g><defs><clipPath id="a"><path fill="#fff" d="M1.5 5h185v30H1.5z"/></clipPath></defs></svg>