<svg xmlns="http://www.w3.org/2000/svg" width="161" height="40" fill="none"><g clip-path="url(#a)"><mask id="b" width="41" height="40" x="0" y="0" maskUnits="userSpaceOnUse" style="mask-type:luminance"><path fill="#fff" d="M40.5 0H.5v40h40z"/></mask><g fill="#3758F9" mask="url(#b)"><path d="M40.436 18.352a.816.816 0 0 0-.8-.736H19.7a3.1 3.1 0 0 0-2.64 1.6 2.8 2.8 0 0 0 0 2.784.86.86 0 0 0 .72.464h21.904a.816.816 0 0 0 .8-.736v-1.6a24 24 0 0 0-.048-1.776" opacity=".72"/><path d="M40.42 18.352a.8.8 0 0 0-.784-.736h-3.2a.8.8 0 0 0-.592.272.75.75 0 0 0-.192.608v1.6a15.2 15.2 0 0 1-7.04 12.8c-.224.144-.432.32-.672.448a15 15 0 0 1-3.744 1.504l2.096 3.728a.8.8 0 0 0 .704.4.7.7 0 0 0 .256 0l.512-.208.464-.192q1.063-.441 2.064-1.008A20.05 20.05 0 0 0 40.5 19.952c0-.592-.032-1.056-.08-1.6"/><path d="M29.095 33.539a.86.86 0 0 0-.48-.384h-.224a.9.9 0 0 0-.4.096 15.04 15.04 0 0 1-7.488 1.968 15.23 15.23 0 0 1-15.2-15.2 15.23 15.23 0 0 1 15.2-15.2c2.623 0 5.202.678 7.488 1.968a.7.7 0 0 0 .4.112h.176a.82.82 0 0 0 .528-.384l1.6-2.784a.816.816 0 0 0-.288-1.104A20.03 20.03 0 0 0 20.535.035a20.03 20.03 0 0 0-20 20 20.03 20.03 0 0 0 20 20c3.459.003 6.86-.89 9.872-2.592a.784.784 0 0 0 .288-1.088z"/><path d="M22.788 22.4h-5.056a.9.9 0 0 1-.704-.432l9.296 16.464a.8.8 0 0 0 .704.4q.136.023.272 0c1.057-.38 2.08-.852 3.056-1.408a.784.784 0 0 0 .288-1.088z" opacity=".56"/></g><path fill="#111928" d="M63.022 13.657v16.95h-2.98v-16.95H55.5v-2.802h12.051v2.802zm14.725 4.49h2.892v12.46h-2.892v-1.304q-1.778 1.663-3.825 1.663-2.584 0-4.273-1.868-1.676-1.905-1.676-4.759 0-2.802 1.676-4.67t4.196-1.867q2.175 0 3.902 1.79zm-6.831 6.192q0 1.79.96 2.917.984 1.139 2.481 1.139 1.6 0 2.584-1.1.985-1.14.985-2.892t-.985-2.891q-.985-1.113-2.558-1.113-1.485 0-2.482 1.126-.985 1.139-.985 2.814m16.234-6.192v12.46h-2.878v-12.46zm-3.313-5.181q0-.755.55-1.305t1.318-.55q.78 0 1.33.55.55.537.55 1.318 0 .78-.55 1.33a1.77 1.77 0 0 1-1.317.55q-.78 0-1.331-.55a1.83 1.83 0 0 1-.55-1.343M93.675 9v21.608h-2.879V9zm14.354 11.322h8.162v.652q0 2.226-.525 3.94-.512 1.587-1.727 2.969-2.75 3.096-6.998 3.096-4.145 0-7.1-2.994-2.955-3.007-2.955-7.215 0-4.3 3.006-7.292 3.007-3.007 7.318-3.007 2.316 0 4.324.947 1.919.947 3.774 3.07l-2.124 2.034q-2.43-3.236-5.923-3.236-3.134 0-5.258 2.162-2.124 2.123-2.124 5.322 0 3.3 2.367 5.437 2.214 1.983 4.798 1.983 2.2 0 3.953-1.484 1.752-1.497 1.957-3.582h-4.925zm11.373-2.175h2.878v1.113q.793-.832 1.408-1.138.627-.32 1.484-.32 1.139 0 2.379.742l-1.318 2.635q-.817-.588-1.599-.588-2.354 0-2.354 3.556v6.46h-2.878zm13.087 0v12.46h-2.878v-12.46zm-3.313-5.181q0-.755.55-1.305t1.318-.55q.78 0 1.33.55.55.537.55 1.318 0 .78-.55 1.33a1.77 1.77 0 0 1-1.317.55q-.781 0-1.331-.55a1.83 1.83 0 0 1-.55-1.343M145.321 9h2.891v21.608h-2.891v-1.305q-1.701 1.663-3.851 1.663-2.559 0-4.247-1.868-1.676-1.906-1.676-4.759 0-2.789 1.676-4.657 1.663-1.88 4.183-1.88 2.189 0 3.915 1.79zm-6.832 15.339q0 1.79.96 2.917.985 1.139 2.482 1.139 1.599 0 2.584-1.1.985-1.14.985-2.892t-.985-2.891q-.986-1.113-2.559-1.113-1.483 0-2.482 1.125-.985 1.14-.985 2.815m20.597-4.069-2.379 1.267q-.562-1.15-1.395-1.151-.396 0-.678.269a.86.86 0 0 0-.281.665q0 .715 1.663 1.42 2.29.985 3.083 1.817.793.831.793 2.238 0 1.805-1.33 3.02-1.292 1.15-3.122 1.151-3.134 0-4.439-3.058l2.456-1.138q.513.895.781 1.138.524.487 1.253.487 1.46 0 1.459-1.33 0-.769-1.126-1.434-.435-.217-.87-.422a84 84 0 0 1-.883-.422q-1.253-.615-1.765-1.228-.652-.78-.652-2.009 0-1.625 1.113-2.686 1.139-1.062 2.763-1.062 2.392 0 3.556 2.469"/></g><defs><clipPath id="a"><path fill="#fff" d="M.5 0h160v40H.5z"/></clipPath></defs></svg>