<svg xmlns="http://www.w3.org/2000/svg" width="163" height="40" fill="none"><g clip-path="url(#a)"><path fill="#625DF5" d="M32.957 14.998V26.94a7.05 7.05 0 0 1-3.299 5.972l-9.603 6.04a.309.309 0 0 1-.473-.259v-4.227c0-.694.345-1.34.922-1.726l6.125-4.086A3.08 3.08 0 0 0 28 26.1v-8.232c0-.658.35-1.266.922-1.598l3.115-1.793a.616.616 0 0 1 .921.534z"/><path fill="#625DF5" d="m32.214 11.423-13.565 7.833a3.06 3.06 0 0 0-1.536 2.66v16.502c0 .24-.258.388-.461.265l-12.57-7.311A7.2 7.2 0 0 1 .5 25.148v-9.99A8.42 8.42 0 0 1 4.715 7.86l11.44-6.61a1.83 1.83 0 0 1 1.842 0L20.86 2.9a.923.923 0 0 1 0 1.598L7.203 12.38a3.06 3.06 0 0 0-1.536 2.66v9.499c0 1.1.584 2.113 1.536 2.66l4.528 2.611a.142.142 0 0 0 .215-.123V20.25c0-1.916 1.02-3.68 2.678-4.638l13.123-7.575a1.84 1.84 0 0 1 1.96.073l2.562 1.751a.923.923 0 0 1-.061 1.56z"/><path fill="#fff" d="M47.732 9.717h4.381v11.899q0 1.465.4 2.612a5.05 5.05 0 0 0 1.19 1.921q.8.788 1.976 1.202 1.175.402 2.736.401 1.548 0 2.723-.4 1.188-.415 1.976-1.203a5 5 0 0 0 1.202-1.921q.4-1.147.401-2.612v-11.9h4.381v12.425q0 2.13-.719 3.87a8.2 8.2 0 0 1-2.086 2.985q-1.369 1.245-3.359 1.921-1.976.677-4.519.677t-4.533-.677q-1.976-.678-3.344-1.921a8.2 8.2 0 0 1-2.087-2.985q-.72-1.74-.719-3.87zm24.393 0h4.408v21.6h-4.408zm6.468 13.516q0-1.95.732-3.51a7.9 7.9 0 0 1 2.018-2.681q1.299-1.12 3.068-1.714 1.783-.608 3.856-.608.885 0 1.74.11.871.11 1.66.304.8.194 1.492.47.704.263 1.244.58V8.39h4.09v22.928h-4.09v-1.534q-.54.372-1.272.705-.732.33-1.575.58t-1.755.387q-.9.152-1.783.152-2.073 0-3.814-.608-1.728-.608-2.972-1.714a7.9 7.9 0 0 1-1.948-2.64q-.692-1.547-.692-3.413m4.298 0q0 .98.386 1.852.401.87 1.134 1.534a5.7 5.7 0 0 0 1.783 1.036q1.05.375 2.349.374.83 0 1.658-.152a10 10 0 0 0 1.59-.456 8 8 0 0 0 1.437-.705 6 6 0 0 0 1.175-.926v-5.653a7.4 7.4 0 0 0-1.313-.843q-.69-.345-1.41-.566a9 9 0 0 0-1.45-.318 9.5 9.5 0 0 0-1.424-.11q-1.41 0-2.516.386-1.092.373-1.852 1.037-.746.664-1.147 1.561a4.7 4.7 0 0 0-.4 1.949m18.077-.124q0-1.659.678-3.165a8 8 0 0 1 1.948-2.681q1.271-1.162 3.11-1.852 1.851-.69 4.201-.691 2.336 0 4.201.705 1.88.69 3.179 1.907a8.2 8.2 0 0 1 2.004 2.86 8.85 8.85 0 0 1 .705 3.525q0 .235-.014.511 0 .262-.028.484h-15.423q.263.732.843 1.34.594.609 1.479 1.05a8.6 8.6 0 0 0 2.045.692q1.161.235 2.571.235t2.805-.29q1.396-.305 2.667-.76l1.382 3.123q-.8.373-1.63.663a16 16 0 0 1-1.714.47q-.885.18-1.866.276-.967.097-2.045.097-2.75 0-4.823-.663-2.074-.664-3.469-1.81-1.396-1.148-2.101-2.696a7.9 7.9 0 0 1-.705-3.33m15.686-1.59a3.9 3.9 0 0 0-.691-1.257 4.2 4.2 0 0 0-1.147-1.023 5.8 5.8 0 0 0-1.603-.691 7.6 7.6 0 0 0-2.004-.249q-1.161 0-2.114.263a6.4 6.4 0 0 0-1.673.705q-.719.441-1.202 1.022a4 4 0 0 0-.691 1.23zm5.998 1.686q0-1.796.65-3.344a7.6 7.6 0 0 1 1.921-2.695q1.27-1.148 3.095-1.797 1.839-.65 4.188-.65a17.3 17.3 0 0 1 4.049.485q.968.22 1.811.538a8.4 8.4 0 0 1 1.465.678l-1.894 3.081a13.7 13.7 0 0 0-2.543-.912 10.2 10.2 0 0 0-2.418-.29q-1.41 0-2.529.373-1.12.36-1.907 1.023a4.4 4.4 0 0 0-1.189 1.548 4.6 4.6 0 0 0-.401 1.935q0 1.05.429 1.948.441.885 1.23 1.534.8.636 1.921 1.01 1.133.359 2.515.359a9.4 9.4 0 0 0 2.861-.429 11 11 0 0 0 2.515-1.147l1.893 3.082q-.732.442-1.589.83-.857.373-1.838.649-.968.276-2.045.428-1.065.166-2.212.166-2.336 0-4.187-.636-1.853-.636-3.137-1.755a7.8 7.8 0 0 1-1.977-2.667q-.677-1.535-.677-3.345M142.967 8.39h4.091v13.544l7.628-6.924h6.261l-8.527 7.629 9.066 8.679h-6.136l-6.067-5.874-2.225 1.99v3.884h-4.091z"/></g><defs><clipPath id="a"><path fill="#fff" d="M.5 0h162v40H.5z"/></clipPath></defs></svg>