<?xml version="1.0" encoding="UTF-8"?>
<svg width="1125.9" height="286.25" version="1.1" viewBox="0 0 1125.9 286.25" xml:space="preserve"
     xmlns="http://www.w3.org/2000/svg" xmlns:cc="http://creativecommons.org/ns#"
     xmlns:dc="http://purl.org/dc/elements/1.1/" xmlns:rdf="http://www.w3.org/1999/02/22-rdf-syntax-ns#"><metadata><rdf:RDF><cc:Work rdf:about=""><dc:format>image/svg+xml</dc:format><dc:type
        rdf:resource="http://purl.org/dc/dcmitype/StillImage"/><dc:title/></cc:Work></rdf:RDF></metadata>
    <g transform="matrix(1.3333 0 0 -1.3333 0 286.25)"><g transform="scale(.1)"><g fill="#231f20"><path d="m3470.2 866.55c0-80.539-11.58-153.78-34.63-219.77-23.1-66-55.45-122.07-97.03-168.25-41.55-46.23-90.75-82.152-147.48-107.89-56.74-25.77-119.48-38.61-188.07-38.61-68.63 0-131.35 12.84-188.07 38.61-56.77 25.738-105.92 61.66-147.47 107.89-41.58 46.18-73.96 102.25-97.04 168.25-23.1 65.989-34.62 139.23-34.62 219.77 0 80.469 11.52 153.73 34.62 219.73 23.08 66 55.46 122.43 97.04 169.28 41.55 46.85 90.7 83.14 147.47 108.87 56.72 25.74 119.44 38.61 188.07 38.61 68.59 0 131.33-12.87 188.07-38.61 56.73-25.73 105.93-62.02 147.48-108.87 41.58-46.85 73.93-103.28 97.03-169.28 23.05-66 34.63-139.26 34.63-219.73m-136.6 0c0 127.99-29.69 229.94-89.1 305.86-59.38 75.87-139.9 113.82-241.51 113.82-101.65 0-182.13-37.95-241.51-113.82-59.41-75.92-89.1-177.87-89.1-305.86 0-128.03 29.69-229.64 89.1-304.87 59.38-75.219 139.86-112.85 241.51-112.85 101.61 0 182.13 37.633 241.51 112.85 59.41 75.23 89.1 176.84 89.1 304.87"/><path
            d="m4097.7 1399.1c42.21 0 82.18-3.3 119.78-9.91 37.63-6.59 63.67-13.19 78.17-19.77l-25.71-110.86c-10.58 5.25-32.02 10.9-64.38 16.82-32.32 5.94-74.88 8.92-127.65 8.92-55.43 0-99.97-3.96-133.64-11.91-33.66-7.91-55.77-14.51-66.34-19.77v-896.82h-128.66v975.99c32.97 14.52 78.5 29.35 136.62 44.55 58.03 15.15 128.69 22.76 211.81 22.76"/><path
            d="m4635.3 1317.9c22.43 17.11 58.42 35.27 107.91 54.42 49.48 19.1 107.91 28.71 175.22 28.71 73.86 0 139.58-13.23 196.97-39.59 57.39-26.43 105.9-63.36 145.51-110.86 39.59-47.52 69.59-103.95 90.05-169.25 20.47-65.35 30.73-136.98 30.73-214.8 0-83.149-12.28-157.73-36.64-223.73-24.43-65.988-58.76-122.1-102.93-168.25-44.26-46.25-97.03-81.519-158.38-105.95-61.4-24.391-129.7-36.59-204.91-36.59-91.07 0-166.29 5.922-225.71 17.789-59.4 11.902-108.24 24.41-146.48 37.613v1402l128.66 25.39zm0-841.39c19.81-6.641 49.17-12.871 88.12-18.801 38.89-5.918 90.07-8.898 153.43-8.898 110.84 0 199.93 35.898 267.26 107.87 67.28 71.93 100.94 175.22 100.94 309.85 0 56.722-5.93 110.5-17.79 161.33-11.91 50.78-31.06 95.02-57.44 132.64-26.41 37.63-61.06 67.63-103.91 90.08-42.94 22.43-96.05 33.67-159.39 33.67-30.38 0-59.35-2.99-87.11-8.94-27.69-5.91-53.44-13.54-77.19-22.76-23.77-9.23-44.55-19.15-62.37-29.69-17.78-10.57-32.65-20.49-44.55-29.72v-716.63"/><path
            d="m5660.8 1343.6c38.24 10.55 89.74 22.44 154.42 35.66 64.66 13.16 143.86 19.8 237.56 19.8 77.86 0 142.85-11.24 194.99-33.68 52.13-22.45 93.7-54.41 124.72-96 31.03-41.57 53.12-91.42 66.36-149.46 13.17-58.08 19.76-122.1 19.76-192.05v-572.12h-128.66v530.57c0 72.539-4.94 133.93-14.85 184.12-9.91 50.11-26.42 91.03-49.5 122.69-23.09 31.71-53.43 54.47-91.06 68.35-37.6 13.83-84.84 20.78-141.55 20.78-60.73 0-113.19-3.33-157.41-9.93-44.21-6.59-72.92-12.56-86.1-17.78v-898.8h-128.68v987.85"/><path
            d="m6725.8 868.52c0 89.742 12.85 167.94 38.58 234.61 25.76 66.61 59.42 122.38 100.99 167.26 41.58 44.86 89.1 78.22 142.54 99.96 53.43 21.78 108.55 32.68 165.3 32.68 125.36 0 225.36-40.92 299.91-122.72 74.55-81.86 111.87-207.89 111.87-378.15 0-10.57-0.33-21.082-0.98-31.66-0.7-10.59-1.66-20.488-2.98-29.691h-718.63c3.95-125.4 34.96-221.74 93.05-289.03 58.04-67.32 150.45-100.99 277.17-100.99 69.91 0 125.36 6.59 166.28 19.801 40.89 13.18 70.61 24.422 89.06 33.64l23.79-110.83c-18.49-10.597-53.15-23.109-103.95-37.628-50.8-14.489-110.55-21.77-179.18-21.77-89.75 0-166.29 13.219-229.65 39.602-63.32 26.386-115.49 63.359-156.37 110.86-40.92 47.519-70.62 103.94-89.1 169.26-18.49 65.301-27.7 136.94-27.7 214.8m726.55 81.191c-2.67 106.87-27.7 190.03-75.22 249.41-47.52 59.41-114.84 89.1-201.95 89.1-46.21 0-87.45-9.27-123.73-27.73-36.31-18.47-68.01-43.23-95.02-74.21-27.05-31.06-48.16-67-63.36-107.91-15.19-40.94-24.08-83.831-26.72-128.66h586"/><path
            d="m7992.8 1379.3h407.84v-108.89h-407.84v-544.42c0-58.089 4.98-105.28 14.85-141.54 9.9-36.32 24.09-64.339 42.59-84.16 18.48-19.793 40.9-32.972 67.27-39.57 26.38-6.633 55.45-9.922 87.16-9.922 54.06 0 97.64 6.262 130.62 18.82 32.98 12.563 58.71 24.082 77.22 34.629l31.65-106.89c-18.5-11.883-50.8-25.442-97-40.59-46.21-15.153-96.34-22.762-150.45-22.762-63.34 0-116.47 8.238-159.37 24.75-42.89 16.488-77.19 41.57-102.92 75.25-25.74 33.648-43.91 75.512-54.47 125.69-10.55 50.149-15.82 109.52-15.82 178.15v1051.6l128.67 25.43v-435.55"/></g><path
            d="m1965.4 1048.9-3.71 5.16-22.55-15.09 3.41-5.47c81.89-129.88 110.45-284.23 80.4-434.56-64.46-322.36-379.18-532.17-701.41-467.84-322.32 64.382-532.17 379.03-467.78 701.37 21.82 109.53 73.937 210.38 150.7 291.68l3.99 4.24-22.177 26.82-5.114-4.68c-103.7-95.03-175.75-222.32-202.91-358.37-71.48-358.09 161.66-707.58 519.73-779.12 43.35-8.6406 87.42-13 131-13 130.2 0 256.85 38.539 366.24 111.49 147.11 98.153 247.22 247.76 281.88 421.24 35.89 179.17-4.82 367.28-111.7 516.13"
            fill="#80cc28"/><path
            d="m1308.3 1078.5c-30.43 137.19-104.63 263.24-208.91 354.93-132.74 116.56-303.2 174.75-479.8 163.28-176.5-11.37-338.03-90.86-454.82-223.83-116.7-132.91-174.7-303.32-163.32-479.83 7.5391-116.22 45.266-228.22 109.11-323.94 32.007-48.051 70.613-92.11 114.74-130.88 120.73-106.07 276.12-164.47 437.57-164.47 21.664 0 43.648 1.082 65.293 3.242l6.387 0.59-1.84 27.078-6.403-0.257c-153.59-5.551-301.66 46.73-416.58 147.67-119.63 105.12-191.19 250.52-201.49 409.45-10.285 158.8 41.922 312.21 147.01 431.93 216.93 246.98 594.38 271.38 841.36 54.41 83.81-73.63 145.05-169.13 177.08-276.15l1.65-5.49 34.49 5.43-1.52 6.84"
            fill="#bfe47c"/><path
            d="m1893.4 1696.7c-56.78 167.59-175.36 303.02-333.88 381.37-104.25 51.51-220.23 74.9-335.08 67.47-57.57-3.68-115.01-15.08-170.72-33.93-173.17-58.6-315.7-187.96-391.06-354.89l-2.613-5.82 24.292-11.9 2.993 5.65c71.59 135.87 190.98 237.77 336.17 286.91 150.79 51.05 312.49 40.34 455.29-30.2 142.73-70.5 249.46-192.42 300.57-343.3 105.41-311.34-62.14-650.4-373.5-755.84-105.7-35.719-219.04-41.019-327.76-15.281l-5.58 1.281-12.56-32.558 6.7-2.11c64.94-20.453 132.65-30.793 201.23-30.793 72.51 0 143.37 11.512 210.64 34.262 167.53 56.711 302.95 175.3 381.34 333.9 78.36 158.56 90.26 338.18 33.53 505.78"
            fill="#05a1e6"/></g></g></svg>
