<svg xmlns="http://www.w3.org/2000/svg" width="357" height="414" fill="none"><path fill="#3758F9" fill-rule="evenodd" d="m64.439 276.48 37.754-19.908c11.933 26.568 41.893 43.615 70.689 37.329 7.019-1.532 13.977-4.996 17.346-11.682 2.535-5.028 2.631-10.932 1.483-16.35-.967-4.565-2.767-9.383-5.712-13.057-3.701-4.617-9.389-8.162-13.993-11.784-7.133-5.614-14.331-11.146-21.548-16.651-.946-.721-3.581-2.018-4.111-3.127-.444-.929 0-3.185 0-4.203v-4.788c10.471 3.815 22.15 5.914 33.279 5.342 18.528-.953 33.404-14.349 46.618-26.247a216 216 0 0 0 6.933-6.511c.433-.426 1.529-2.001 2.134-2.119.808-.16 2.934 1.177 3.677 1.476l7.716 3.098c6.262 2.513 12.557 4.567 18.211 8.259 23.994 15.67 49.52 34.829 60.427 62.28 6.199 15.603 9.896 32.264 12.153 48.879.307 2.266 1.096 5.087.703 7.351-.721 4.15-3.08 8.547-4.504 12.497l-5.427 15.058c-.2.553-.447 1.952-.91 2.3-.966.725-4.191.478-5.351.605-6.661.731-13.34 1.473-20.033 1.84-6.016.33-11.627-1.207-17.364-2.919a257 257 0 0 1-9.517-3.06c-.709-.242-4.178-.894-4.582-1.606-.178-.313.419-1.78.501-2.123a222 222 0 0 0 1.461-6.584c3.219-15.54 5.589-31.828 4.231-47.718-1.416-16.555-10.618-29.634-22.211-40.958a143 143 0 0 0-13.553-11.662c-.832-.631-2.352-2.276-3.404-2.486-.846-.17-1.481.535-2.324 1.086l-7.326 4.778c-.656.428-3.216 1.557-3.453 2.311-.2.635.843 2.736 1.018 3.347a146 146 0 0 1 1.999 7.821c3.916 17.187 5.745 36 .934 53.19-4.542 16.234-15.035 30.843-29.111 40.086-14.562 9.563-31.497 11.929-48.399 8.637-30.06-5.858-60.879-23.47-77.25-50.013-4.192-6.796-7.359-14.227-9.184-22.014" clip-rule="evenodd"/><path fill="#111928" fill-rule="evenodd" d="M334.816 313.107c-1.167 9.242-5.304 18.024-10.425 25.71-.675-1.336.141-2.44-1.728-2.694-1.255-.171-2.915.715-4.153.926-4.592.78-9.413.18-14-.311 1.188-1.288 2.76-2.331 2.168-4.426-.448-1.582-2.39-2.197-3.148-3.659 1.034-.448 3.876 1.811 4.871 2.193-.493-1.241-2.172-3.463-1.811-4.826.264-1.002 1.565-.809.482-2.094-.494.441-2.077 2.571-2.94 2.042.835-.752.225-1.163.592-1.92.284-.584.536-.868.93-1.378 1.018-1.319 1.686-3.005.391-4.553-.433-.518-1.175-.408-1.581-.993-.392-.564-.31-1.226-.416-1.86-.12-.712-.062-1.512-.258-2.209-.407-1.439-.564-1.416.132-2.9l-2.142 1.836c-.355-1.502-.618-3.093-1.351-4.467-.248-.465-1.573-1.691-1.515-2.176-.171 1.411-1.303-.252-1.765-.368-1.455-.366-4.025 1.068-5.134 1.953-3.065 2.445-4.893 7.104-6.828 10.44-2.126 3.665-4.261 7.733-4.82 11.945-.14 1.049-.173 3.254-1.36 3.783-.639.285-3.301-.48-3.96-.86-1.61-.932-1.046-2.327-.422-3.804.809-1.911 1.536-3.55 1.909-5.623.445-2.479.766-4.987 1.152-7.478.81-5.222 1.623-10.468 2.039-15.739.134-1.685-.079-3.364-.015-5.011.056-1.438 1.16-3.099.548-4.813-.21-.587-.647-.724-.618-1.222.019-.309.807-.019.913-.425.204-.792-.552-1.601-.745-2.334-.307-1.159-.072-2.229.105-3.39.718-4.718-.611-9.684-1.879-14.222-1.37-4.904-3.231-9.621-5.14-14.333-1.681-4.148-2.388-8.65-4.367-12.678-1.71-3.479-3.578-6.933-6.66-9.185-1.412-1.032-2.432-2.592-3.776-3.732-.801-.679-1.66-1.409-2.623-1.845-.931-.421-2.044-.176-2.892-.574-1.179-.553-2.486-1.942-3.746-2.485-1.088-.469-2.336-.789-3.353-1.772-1.38-1.332-1.637-2.22-3.575-2.476-1.121-.147-2.233-.082-3.028-1.195-3.147-4.406 5.341-10.767 1.411-15.363-1.564 1.576-2.232 3.817-2.988 5.844-.989 2.654-2.382 4.891-3.948 7.243-2.741 4.118-6.829 8.294-8.007 13.206-1.919-2.682-3-4.279-5.897-1.628-.545-1.201.173-3.488-.91-4.26-1.905-1.357-5.539 2.022-6.578 3.248-4.068 4.802-6.341 10.647-8.574 16.487-.986 2.579-2.046 5.845-.789 8.514 1.112 2.361 3.758 3.656 6.012 4.669 3.191 1.433 5.832 1.358 9.223 1.717 1.556.163 2.959.842 4.442.052 1.285-.684 2.201-2.05 3.317-2.957.262.853.943 1.602 1.809.847 1.268 5.321 2.531 10.528 2.225 16.042-.281 5.059-.723 10.139-1.627 15.128-.932 5.145-2.022 10.374-4.051 15.212-2.008 4.788-5.086 9.005-7.89 13.339-.853-1.739-1.87-.881-3.104-.064-.49-1.041.139-1.835-.542-2.758a5 5 0 0 1-1.176-.955q-.18-1.11-.501-2.188c-1.095.446-1.56.975-2.06 2.022-1.649-2.9-2.817-2.532-5.886-2.345-4.112.249-5.426 3.803-6.786 7.141-.324.795-.923 1.796-.994 2.677-.051.622.502 1.664.427 1.985-.155.661-.753.11-.915.436-.593 1.198-.745 2.895-1.061 4.194-.843 3.473-1.099 9.087-4.524 11.063-2.866 1.654-6.98 2.045-10.195 2.668-5.057.98-10.411 1.157-15.55 1.185-4.593.025-10.084.577-14.444-1.152-.639-.253-3.662-1.673-2.958-2.396.306-.314 1.962.205 2.301.386-.23-.122-.401-1.531-.517-1.849-.431-1.187-.763-1.228-1.582-2.126-1.818-1.992.636-1.073.471-2.502-.032-.275-1.977.437-1.923.418.063-.434.464-1.334.258-1.77.15.319-1.122-2.36-.971-1.75-.294-1.184.532-2.352.362-3.496-.243-1.623-1.431-1.299-2.361-2.259-.319-.33-.446-.999-.76-1.376-.136-.165-.634-.193-.685-.282-.34-.59-.318-.688.039-1.93-.69.302-2.505 1.55-3.208.87-.845-.82.929-1.781-.539-2.345-.591-.228-.93.408-1.458.429-.354.013-.423-.86-.865-.63-.79.41-.994 2.131-1.343 2.877-1.971-5.025-8.328 3.234-9.501 5.173-1.088 1.795-1.149 5.341-3.833 5.066-1.409-.145-3.027-1.684-4.151-2.438-1.648-1.105-3.41-2.024-5.114-3.043-7.562-4.525-14.692-9.514-21.387-15.247-2.464-2.11-5.76-4.728-6.088-7.996-.132-1.309-.29-2.504-.654-3.829-.731-2.666-1.698-2.196-3.832-3.648.855-1.686 2.075-1.773 2.001-3.813-.06-1.657-.696-3.311-1.253-4.84-.712-1.95-1.056-4.143-3.142-4.684-2.222-.577-2.577.502-4.047 2.06.151-.839.83-2.968-.112-3.509-1.312-.754-2.02 2.028-3.05 2.329-.887-1.978-3.888-5.057-1.788-7.022 1.06-.991 3.119-1.372 4.433-1.972 1.953-.892 3.849-1.914 5.745-2.919 8.43-4.465 16.616-9.339 24.977-13.926 1.474 3.41 2.79 6.899 4.489 10.209 1.417 2.76 3.95 5.374 3.848 8.641-.105 3.401-1.647 6.747-2.015 10.15-.244 2.252.093 3.141 2.575 2.358.215 1.552 2.719 3.801 4.055 4.591 2.15 1.27 4.291-1.057 5.791-2.5 1.06 1.006 1.284 2.493 2.158 3.615.44-.472.374-1.811.654-2.029.268-.21 1.206.25 1.399.245.293-.009.045-.839.282-.85.757 1.864 2.505-1.253 4.185.025-.202-.979.074-1.315.914-1.782.435 2.025 2.217 1.072 3.755 1.296 2.732.396 5.4 1.926 8.085 2.62 5.534 1.429 10.758 2.22 16.456 2.128 2.28-.037 3.239.309 4.583 2.088.512.676.759 1.524 1.647 1.843 1.3.469 1.374-.404 2.428-.651 1.073-.252.509-.522 1.52.009.62.326.988 1.362 1.495 1.846 1.437 1.371 2.963 1.891 4.164.012.228.686.487.898 1.027 1.352-.077-1.084-.239-3.253 1.552-2.74 1.338.382.716 2.305 2.616 1.972 1.065-.187 1.95-1.725 2.588-2.499.873-1.061.911.395 1.082-1.417.102-1.075-.601-2.411-1.027-3.348 1.595.328 1.88 2.015 3.466 2.163 1.776.167 2.684-2.191 4.406-1.738-.167-.396-.81-1.718-.527-2.109.435-.602 1.058.826 1.737.691.739-.148 1.56-2.155 1.405-2.832-.309-1.347-1.877-1.007-2.474-2.076-.545-.977-.063-2.767-.089-3.825-.035-1.442-.37-2.905-.12-4.345.264-1.514 1.028-2.767 2.072-3.885.725-.777 2.744-1.98.975-2.873 3.135-1.157 1.284-4.391 1.528-7.08.152-1.672.826-2.889.453-4.686-.445-2.15-1.593-4.151-2.781-5.968-1.183-1.811-2.401-3.492-4.16-4.773l-1.433-.965q-.494-.692-1.242-.401c-.809-.615-.957-1.115-1.554-1.994-1.503-2.213-4.166-3.305-6.376-4.619-2.122-1.262-3.968-2.998-6.192-4.082.011.005-2.336-1.006-2.139-.743-.809-1.08.015-2.417-.027-3.582-.043-1.196-.761-1.723-1.096-2.754-.399-1.226.318-2.75-.404-3.847-.282-.428-.834-.547-1.177-.924-.584-.641-.844-1.505-1.463-2.136l-1.821 2.148c-.717-1.742-.859-2.194-2.329-.54-2.243 2.525-3.514 1.436-5.342-.911-.604-.775-1.307-.928-1.759-1.497-.72-.906.054-2.494-.974-3.284-.599-.462-1.436.005-1.94-.789-.621-.975.392-2.423-.18-3.516 8.59 2.715 17.355 4.881 26.432 4.221 8.818-.641 17.823-2.801 25.915-6.378 14.041-6.208 27.735-16.418 33.254-31.226 1.382 1.621 1.094 4.578 2.62 6.065 2.267 2.211 2.063-2.208 2.063-3.615 1.817.486 4.411 1.256 4.559 3.468.149 2.235-1.863 4.564-2.571 6.597-.711 2.043-1.066 4.406-.893 6.564.086 1.079.286 2.196.826 3.15.66 1.165 1.393 1.107 2.278 1.639-.145-.087 1.108.759 1.07.75 2.638.633 4.755 2.612 7.589 1.895 1.826-.461 3.59-1.795 4.263.873 1.269-.853 1.426-1.512 1.391-2.768-.015-.545-.789-1.009-.014-1.181.258-.057 1.219 1.109 1.596 1.217 1.04.297 1.44-.12 1.942-.902.289-.451.308-3.494.655-3.558.735-.136 2.269 2.997 2.678 3.558 0-8.984 9.383 1.429 12.302 3.413 2.376 1.615 4.957 3.046 6.949 5.153 2.537 2.685 1.803 4.244.09 7.146-1.896 3.212-3.267 6.954-4.992 10.303-.866 1.68-1.903 3.698-1.879 5.651.009.659.389 1.339.353 1.978-.052.925-.5 1.318-.873 2.128-1.072 2.331-.111 5.117 2.155 6.271 1.452.74 2.946 1.208 4.349 2.063 1.482.904 2.948 1.879 4.753 1.941 1.167.04 1.812-.273 2.938.077.764.237 1.402.924 2.287.837 1.77-.174 3.069-2.125 4.887-2.527 1.346-.297 3.093-.124 3.951-1.443 1.064-1.636-.962-3.267.654-4.773.446.831.741 1.778.847 2.714.478-1.257.67-2.267 1.374-3.394.735-1.177 1.153-1.943 1.14-3.429-.023-2.666-1.314-5.15-1.96-7.687 2.261.125 4.123 4.015 5.109 5.647 1.819 3.01 3.7 5.98 5.509 8.996 2.27 3.785 5.155 7.947 6.615 12.128 1.317 3.772-1.871 6.199-3.626 9.266-2.077 3.629-2.706 7.103-3.84 10.995-.907 3.112-1.011 6.57 1.534 8.932 1.136 1.054 2.58 1.667 3.994 2.239 1.687.684 2.132 1.936 3.943 2.297a20.6 20.6 0 0 0 4.521.383c2.529-.079 1.61-.912 3.012-2.507-.438 1.498 1.044 2.919 1.455 4.292.576 1.922.708 4.044.945 6.031.521 4.357.258 8.701-.29 13.04m-33.861 39.898c-2.273-.514-5.659-.205-7.702-1.334-1.417-.782-.775-1.536-.188-3.014 1.592-4.007 6.027-4.452 9.952-3.361zm4.091 30.09c7.208 3.9 15.07 8.08 20.869 13.938 1.363 1.376 5.047 4.435 4.556 6.687-.514 2.352-5.144 1.897-6.855 1.834-8.285-.303-16.044-2.377-23.466-6.013-7.098-3.477-13.939-7.035-19.103-13.173-2.093-2.486-5.923-6.322-5.489-9.872.432-3.523 4.054-6.193 5.975-8.958 1.884-2.71 4.221-8.639 7.737-9.537 1.533-.391 3.074.473 4.503.907 1.365.414 3.431.412 4.599 1.325 2.114 1.653 1.268 5.466-.953 6.532-1.478.71-3.198 1.016-4.749 1.53-1.743.578-10.542 3.227-7.265 6.226 2.281 2.087 6.342-.462 8.786-1.043 1.255-.298 3.272-.684 4.018.746.726 1.393-.591 2.841-1.736 3.488-1.701.962-3.878.813-5.354 2.227-1.205 1.155-1.517 2.526.136 3.223 4.395 1.853 9.205-2.549 13.791-.067m-90.425-66.712c-.254-.985.395-1.543 1.419-1.112q-.338.963-1.419 1.112m-71.466 21.3c-.928-.125-.553-1.293-.172-1.873q.922.718.172 1.873m-64.531-40.524c-1.179-1.312.601-3.585 2.371-2.522-.576.866-1.737 1.515-2.371 2.522m-4.274-54.942c-1.907-3.392-2.042-10.759-7-11.208-1.821-.164-5.064 2.117-6.628 1.039-1.418-.977-.182-5.897-2.247-5.823-2.91.104-1.416 5.799-2.729 7.21-.752.807-2.448 1.131-3.497.991-1.594-.212-1.731-.932-1.772-2.426-.03-1.105.772-5.531-1.717-4.796-1.812.535-1.374 4.422-1.554 5.801-.666 5.133-8.143 4.893-12.06 5.328-2.378.264-13.52 2.038-11.044-2.869 1.046-2.076 3.614-3.802 5.361-5.246 2.974-2.46 6.372-4.399 9.917-5.905 6.593-2.801 14.022-4.292 21.172-3.315 8.05 1.1 14.678 5.066 20.051 11.05 1.11 1.237 4.246 4.096 3.045 5.858-.667.98-2.977 1.223-4.012 1.587-1.873.661-3.698 1.516-5.286 2.724m11.848 2.478c2.736-1.034 3.357 2.373 4.41 4.215.902 1.577 2.901 3.971 1.852 5.823-.954 1.685-3.87 2.689-5.513 3.399-2.149.931-4.395 1.623-6.54 2.561-1.123-2.673-2.097-5.413-3.283-8.058-.668-1.492-2.04-3.544-.863-5.035 1.948-2.467 7.222-1.878 9.937-2.905m75.865-100.872c.212-3.063 2.22-2.06 2.995.047.842 2.289.938 5.009 1.005 7.422.051 1.841-.328 4.718-2.087 2.036-1.69-2.576-2.119-6.519-1.913-9.505m10.812 12.346c-.304 3.708-2.421 1.144-3.196-.833-1.13-2.885-1.994-6.614-1.581-9.722.477-3.587 2.229-1.335 3.011.859 1.105 3.103 1.153 6.484 1.766 9.696m4.595-3.024c-2.383.645-6.1-13.397-2.88-13.876 2.676-.399 5.23 13.24 2.88 13.876m9.544 1.463c-.022 3.116-2.594.66-3.494-.598-1.649-2.304-2.948-5.743-3.042-8.571-.087-2.656 1.077-4.813 2.939-1.953 2.069 3.177 2.928 7.456 3.597 11.122m-20.824-35.972c2.321-6.507 5.218-12.49 9.089-18.218.695-1.028 1.392-2.2 2.337-3.017.766-.663 1.87-.829 2.59-1.475 1.451-1.298.342-2.6-1.07-3.281-2.371-1.144-6.591-.978-4.935-4.778 2.288-5.252 8.218-2.325 10.552 1.245.945-2.23 2.605-1.686 4.629-1.838 3.026-.228 5.871-1.677 8.927-1.626 2.833.047 5.442 1.424 8.282 1.475 3.162.056 5.803.187 8.88 1.072-1.603 3.243-3.592 6.45-6.642 8.517.548-1.014 2.45-3.734.744-4.486-1.153-.508-3.616 1.62-4.597 2.112a4.76 4.76 0 0 0-.934-2.606c-2.996 2.094-1.987 5.687.569 7.656-2.235 1.164-4.572 2.186-7.081 2.565-2.476.373-4.965-.209-7.427.209-4.322.734-7.55 4.603-8.238 8.849-.374 2.304.885 8.101 2.76 3.607.374-.898.567-1.957 1.16-2.745.979-1.301 1.73-.843 3.165-.531 1.19.258 3.274.518 3.725 1.834.405 1.181-.651 2.767-1.249 3.666-2.049 3.084-5.113 5.75-8.815 6.449-2.095.395-18.073-.02-16.421-4.655m4.986-42.234c-1.344-.9-.335-3.245-.175-4.445l.714 1.317c-.167-2.81.217-5.081.817-7.81.228-1.035.145-1.916.192-2.954.027-.593-.084-1.015.162-1.372.315-.458.691.876.674.758 1.433-1.727.27-2.092.689-3.83.005-.022 1.318-1.425 1.464-1.69.692-1.261.831-1.748 2.027-2.48 1.213-.743.804-.009 1.463-1.597.634-1.53.593-2.587.961-4.189q.849.62 1.716.037-.804-.223-.858-1.054c1.478-.15 2.787-1.583 4.131-1.09-.339-.58-.572-3.904.532-3.897q.055.78.001 1.562c.933-1.406 2.396-3.486 3.546-4.549.868-.802.623-.568 1.685-.68.913-.098.926.245 1.709-.574q-.462-1.267.694-1.606l.713-.311c1.094-.664 1.498-1.415 2.359-2.294.669-.685 2.086-.977 2.589-1.66.542-.735.141-2.373.862-2.932.789-.612.841.186 1.61.113.11-.01 1.223-.603 1.45-.68 1.643-.554 3.164-.777 4.553-2.042.467-.424.796-1.237 1.246-1.565.745-.544 1.637-.437 2.397-.916.242-.152.607-.829.893-1.078.84-.736 1.993-1.101 3.034-1.425 2.157-.67 4.187-1.335 6.273-2.237a86 86 0 0 1 14.171-4.7c.548-.128 1.954-.053 2.361-.318.301-.196.562-.862.636-.905.889-.516 2.32-1.096 3.539-1.443 3.578-1.02 3.703.927 1.422 2.989-2.024 1.83-4.468 3.107-6.547 4.857-3.389 2.852-5.591 7.06-7.827 10.801 3.003 1.455 7.307-.019 10.356-.65 1.55-.321 3.195-.355 4.722-.355l.491-.28q.586-.396.761.324.085.924.902.295a7 7 0 0 1 .904-.53c.559-.318 1.417-1.34 2.134-1.213 1.057.186.423.702 1.105.964 1.569.6 2.331-.829 3.794-1.058.503-.079 1.217.31 1.77.25a5 5 0 0 0 1.267-.678q.585-.013.821.561c1.193.008 3.395-.276 3.5-1.784.84 1.588 1.324 1.047 2.637.31 0 1.9 4.113.28 5.24.276 2.9-.009 5.405-1.154 8.156.322-4.863 2.173-10.37 3.137-15.079 5.604-2.129 1.115-4.87 4.27-3.29 6.832.938 1.521 2.68 1.435 4.22 1.253 1.956-.231 3.582.502 5.583.42 4.06-.164 9.05 2.92 12.554-.375 1.531 2.083 3.339 2.075 5.637 2.203 1.066.06 7.72 1.216 7.446 2.504-.153.724-3.334 1.863-3.813 2.076a35 35 0 0 1-5.583 1.909c-3.448.873-6.841.82-10.319 1.358-2.53.393-5.66 1.833-4.968 5.038.609 2.821 3.956 2.185 6.126 1.988 2.371-.215 4.654-.487 7.04-.382 1.915.084 5.875-.035 7.081 1.848-5.314 3.824-11.979 4.816-18.314 5.61-7.326.918-14.594 2.078-21.762 3.873.54-1.08 2.917-5.014 1.979-6.188-1.149-1.439-4.596 4.362-5.482 5.143-7.541 6.643-17.866 11.15-27.107 14.835 3.043-3.76 7.628-6.329 11.345-9.378 2.559-2.098 7.213-5.525 5.52-9.422-9.511 5.928-17.512 16.606-29.511 17.305 4.287-3.12 9.226-5.52 12.752-9.591.825-.952 3.545-4.59 1.858-5.897-1.328-1.03-3.676 2.596-4.602 3.381-6.513 5.523-15.459 10.198-23.571 12.787-2.915.93-6.921 2.51-9.598.48-3.592-2.724-6.391-2.812-10.443-.638-.403-1.772-.456-4.314-2.137-5.441m85.707 125.337v2.249c-1.218-.12-.672-1.404-1.405-1.995zm-1.533-2.605c.371 1.311.371 1.311-1.184 1.163zm5.876 1.836c.889-.488.131 2.437-1.281.923zm3.144-4.225-.497 2.896-1.557-1.287zm67.526 89.684c1.116-.673 1.342 1.903 1.461 2.392-.733-.404-3.215-1.333-1.461-2.392M110.679 90.615c-1.933 2.665-3.862 5.352-5.452 8.24-.883 1.605-1.528 3.95-3.132 5.023-1.429.955-3.782 1.101-5.385 1.501-3.216.8-6.406 1.713-9.534 2.811-10.675 3.75-20.81 10.13-28.313 18.667-3.615 4.113-6.633 8.85-8.332 14.082-1.947 5.997-1.29 12.285-2.004 18.458-.171 1.483-.483 6.771-2.235 7.44-2.157.823-2.767-4.389-3.027-5.753-.327-1.712-1.232-13.427-4.613-12.344-2.061.66-2.074 7.493-2.2 9.122-.287 3.7-.71 7.372-1.414 11.02-.55 2.842-1.28 5.661-1.961 8.475-.6 2.473-1.25 5.441-3.122 7.304-1.376-7.534-1.6-15.998.979-23.301.705-1.999 5.137-12.248 1.218-13.24-2.341-.593-4.198 4.991-4.832 6.466-2.123 4.939-3.808 10.06-5.64 15.11-1.204 3.316-2.424 9.296-5.373 11.601-1.075-8.325 1.199-16.624 3.965-24.398.495-1.388 6.64-15.227 1.318-13.727-2.905.819-4.938 7.012-6.132 9.404-2.926 5.861-6.522 11.954-11.416 16.385-.23-4.639 2.739-9.55 3.842-14.006 1.27-5.122 2.945-9.886 5.657-14.439 5.023-8.43 11.582-16.404 18.06-23.753a125.7 125.7 0 0 1 22.62-20.11c8.343-5.788 17.114-9.46 26.985-11.716 11.052-2.525 23.045-4.017 34.112-.763-1.546 2.147-3.086 4.3-4.639 6.44m182.807 11.019-.534.106-.438-2.594c1.104.647.167 1.754.972 2.488m-46.264-7.47c13.069-5.753 26.843-10 40.781-13.057 9.473-2.079 20.214-3.102 29.446.542 10.658 4.206 15.076 15.487 15.544 26.271.546 12.57-3.73 24.49-9.893 35.265-1.48 2.588-9.389 18.225-12.713 16.484 1.122-3.064 8.983-20.341 3.776-21.87-2.995-.879-5.317 7.623-6.348 9.536-.699 1.297-5.475 10.377-7.068 9.6 1.504-4.841 3.34-9.835 3.196-14.985-.109-3.889-2.141-5.719-4.287-1.691-4.685 8.796-9.613 17.818-16.431 25.172-.643-5.453 2.279-11.474 4.056-16.506 1.395-3.95 3.261-7.886 3.706-12.096.241-2.28.171-6.786-3.236-5.995-2.967.688-5.36 4.081-7.707 5.836 1.775-3.345 3.485-6.734 5.52-9.931 1.745-2.741 3.835-5.24 5.566-7.988.771-1.223 1.2-2.412 1.689-3.704.482-1.275 1.207-1.983 2.028-3.143.611-.863.944-1.595 1.13-2.545.069-.354-.176-.883-.139-1.285.067-.704.806-.892.56-1.701 1.298 1.799.939-1.737.915-2.393-.086-2.306.846-4.803-.307-6.948-2.429-4.52-9.554-3.644-13.765-3.318-6.034.466-13.585 1.838-18.753 5.1-1.321.835-2.151.358-3.584.999-1.311.586-2.645 1.194-3.99 1.765-3.496 1.482-6.833 3.321-10.281 4.909.183-2.58.769-5.097.361-7.675-.173-1.105-1.273-3.988.228-4.648m91.916 200.153c-1.144-7.64-2.439-15.198-4.479-22.655-.975-3.563-1.744-7.198-2.767-10.745-.812-2.818-3.295-4.247-4.522-6.872-2.886-6.175-5.532-12.291-9.01-18.201-3.635-6.175-7.975-11.616-13.134-16.581-10.466-10.071-22.555-17.766-34.257-26.241-6.008-4.352-12.236-8.142-18.941-11.33-2.701-1.285-5.298-2.311-8.157-3.148-2.963-.866-4.442-1.878-5.539-4.85-2.251-6.104-6.474-8.102-12.242-10.422-2.608-1.049-4.982-2.502-7.552-3.618-2.674-1.16-5.502-2.049-7.989-3.599-11.314-7.049 3.791-21.723 9.799-27.006 2.341-2.059 4.99-4.171 7.971-5.193 3.089-1.06 7.3-1.683 10.571-1.973 2.219-.197 5.362.837 7.206-.925 1.487-1.419.912-3.692.73-5.487-.512-5.037 3.629-5.43 7.798-6.32 6.515-1.391 12.605-4.316 19.128-5.778 4.164-.933 15.723-3.727 15.791 3.29.051 5.32-3.933 10.671-6.437 15.019-1.959 3.399-4.048 6.685-6.119 10.013-1.549 2.488-2.952 5.218-2.928 8.225.019 2.376.974 4.722 3.765 4.371 3.137-.395 5.487-3.497 8.092-4.999.107 3.25-2.355 6.884-3.3 9.944-1.114 3.608-2.094 7.359-2.724 11.085-.401 2.377-1.506 11.533 3.312 10.359 3.248-.792 6.046-4.974 7.938-7.443 1.993-2.602 3.78-5.34 5.585-8.072 1.126 3.344-5.882 9.812-2.325 12.825 3.795 3.216 10.368-8.17 12.217-10.273.321 2.554-3.289 8.213.795 9.384 2.89.83 6.83-3.104 8.65-4.956 3.327-3.384 3.733-8.161 5.808-12.257 2.376-4.689 5.422-8.963 7.623-13.76 6.937-15.117 10.463-37.514-.474-51.774-7.384-9.628-20.193-11.294-31.519-10.404-12.889 1.013-25.496 4.932-37.554 9.424-8.097 3.016-16.062 6.394-23.982 9.844a1074 1074 0 0 0-17.458 7.81c-2.805 1.282-5.538 2.669-8.267 4.104-2.251 1.184-4.927 2.561-7.549 1.886 1.886-2.863 5.638-3.811 8.349-5.645 3.208-2.168 4.984-5.874 6.159-9.46 1.264-3.862 2.385-4.784 6.27-5.793 3.883-1.008 7.518-2.633 10.988-4.643 8.137-4.714 17.129-7.409 26.377-8.87 8.183-1.293 16.835-1.876 24.475-5.334 5.688-2.575 12.846-8.272 5.921-13.996 4.901-3.561 13.591-9.507 5.982-15.331-5.897-4.514-14.805-4.164-21.838-4.164 1.012-2.04 4.25-2.742 6.071-3.851 2.245-1.369 5.018-2.85 5.798-5.547 1.276-4.41-3.545-5.696-6.906-6.139-12.78-1.68-27.141-.417-39.247 4.025.632-2.224 3.779-3.863 5.542-5.056 2.348-1.59 4.67-3.33 6.384-5.626.904-1.211 1.578-2.521 1.758-4.035.193-1.632.019-.942-.473-1.375-1.814-1.598-4.368-2.603-6.832-2.71-7.101-.31-13.412 3.027-20.15 4.665-2.979.724-5.759 1.022-8.612 2.307-3.439 1.549-6.983 2.903-10.386 4.523-1.581.753-3.069 1.653-4.665 2.368-1.448.649-1.783 1.463-2.951 2.45-1.071.904-2.26.457-3.475 1.134-1.68.935-3.28 2.568-4.841 3.732-6.078 4.533-11.818 9.739-16.637 15.607-8.319 10.13-16.584 25.825-10.907 39.102 1.325 3.1 4.454 4.097 5.231 7.48.681 2.964.789 5.907 1.664 8.833.887 2.966-2.668 5.746-4.186 8.161-2.375 3.776-3.409 8.049-4.746 12.254-.417-1.131-.559-3.039-1.724-3.705-1.413-.807-1.432.876-2.447.118-1.194-.892-2.162-4.373-2.856-5.76-.925-1.849-1.877-3.688-2.942-5.461-4.349-7.242-11.049-12.838-18.321-17.016-14.85-8.53-32.731-9.444-49.275-6.345C68.629 81.027 54.2 89.29 41.35 100.06c-7.116 5.964-13.393 12.572-19.041 19.942-5.549 7.24-11.28 14.291-15.361 22.498-2.292 4.608-4.367 9.384-5.65 14.382-.994 3.879-1.961 8.588-.696 12.521 1.084 3.366 4.215 5.174 7.375 2.987 2.773-1.921 4.01-5.389 5.903-8.046.38 4.403-4.982 20.611 2.831 21.374 5.77.564 7.886-12.705 9.108-16.547.819 5.171-.728 10.757 1.217 15.751.943 2.423 3.888 6.81 6.382 3.329 1.116-1.559 1.198-3.782 1.598-5.596.502-2.285 1.132-4.542 1.63-6.829 1.255-5.765 1.955-11.618 2.925-17.434 1.63 3.778 1.323 10.658 5.366 12.998 4.1 2.373 5.944-4.413 6.412-7.159.786-4.617.41-9.348 1.088-13.983.687-4.696 2.36-8.93 4.892-12.934 9.008-14.244 25.902-25.005 42.9-25.715-.916 3.522-6.15 12.598.683 12.747 1.541.034 2.953-.242 4.514-.074 1.921.205 4.206 1.188 6.125 1.05 1.164-.085 1.12-.57 2.313.126 1.251.729 1.416 1.809 2.784.108 1.03 1.913 3.433 2.423 5.252 3.257l.064-1.483c1.127 1.603 2.349 1.891 4.076 2.675 1.106.502 1.886.347 2.882.606 1.206.314 1.809.98 2.895 1.596 1.179.669 3.244.587 4.149 1.635 1.6 1.854-.874 4.985-1.765 6.57-2.507 4.455-4.16 9.617-5.247 14.59-.277 1.268-.542 2.164-.338 3.422.178 1.095.505.304.304 1.382-.072.382-.782 1.185-.909 1.459-1.074 2.33-.915 5.418-.971 7.93-.136 6.006.627 11.686 2.264 17.461.719 2.533 1.353 5.173 2.259 7.645.842 2.295 2.117 3.698 1.668 6.18-.962 5.323 4.612 6.767 7.655 10.102 1.377 1.511 1.624 3.44 1.934 5.386.446 2.805 1.371 5.383 2.514 7.984 2.001 4.556 4.744 10.504 8.506 13.868 1.693 1.513 3.246 3.187 5.171 4.316.899.528 2.024 1.82 3.027 2.069.949.234.61-.774 1.641.06.789.638.747 1.589 1.843 2.313 1.052.695 2.185 1.275 3.292 1.875 2.249 1.219 4.679 2.372 6.727 3.912 1.983 1.492 3.958 3.063 5.95 4.569 1.833 1.386 3.121 3.11 3.714 5.356 2.603 9.866-6.524 18.203-14.309 22.329-10.076 5.339-21.496 4.212-31.859.326-10.744-4.028-21.352-11.419-27.752-21.058-1.591-2.396-3.204-4.962-4.41-7.576-.794-1.72-1.021-3.835-2.089-5.414-2.393-3.54-7.535 1.536-10.025 2.865-3.665-15.471-10.702-32.937-27.064-38.474-15.51-5.248-34.943.987-45.02 13.761-2.376 3.011-5.775 7.889-4.175 11.921 1.392 3.506 5.973 4.299 9.276 4.65 4.71.502 9.666-.101 14.211-1.378 1.168-.328 3.167-1.263 4.406-.902 1.924.562 1.851 3.359 2.822 4.816.983 1.474 2.409 1.318 2.741-.573.317-1.806-1.346-3.504.061-5.108.783-.893 3.426-1.631 4.526-.936.92.582 1.002 2.409 1.733 3.249 2.016 2.317 2.236-1.438 2.649-3.022.62-2.382 3.33-4.234 5.961-3.169 1.647.667 2.058 3.195 2.485 4.722.871 3.119 1.47 6.131 2.65 9.17.901 2.319 4.716 8.778 2.887 11.04-1.13 1.397-3.984 2.18-5.624 2.719-2.286.751-5.028 1.2-7.126 2.382-.986.556-3.162 2.073-3.467 3.222-.516 1.947 1.854 2.034 2.957 1.047 3.45 10.228 7.523 20.288 13.859 29.104 6.357 8.847 14.612 16.182 23.311 22.658 17.015 12.665 37.028 21.103 58.225 23.112 10.841 1.028 22.05.124 32.312-3.634 1.157-.424 2.331-.916 3.555-1.116 1.109-.18 2.247.203 3.32.025 1.392-.231 1.018-.768 1.903-1.512.816-.686 2.092-.924 2.996-1.516 4.506-2.954 8.594-7.108 12.116-11.153 6.619-7.598 13.177-17.071 16.295-26.729 3.133-9.703 3.281-20.012 4.224-30.073.583-6.222-1.292-12.004-2.315-18.085a294 294 0 0 0-3.712-18.493c-.57-2.428-.574-4.185 1.332-5.953 1.485-1.376 3.34-2.459 5.315-1.521 2.067.982 3.941 3.126 5.829 4.458 1.946 1.373 2.858 3.204 4.796.918 0 1.985.958 2.582 2.63 3.234 2.244.876 4.339 1.813 6.369 3.145 4.39 2.881 7.707 7.241 10.184 11.819 2.642 4.882 5.682 9.877 7.517 15.127 2 5.723 2.251 12.173 2.452 18.184.212 6.282.274 12.61-.085 18.888-.338 5.937-.671 12.606-2.422 18.311-1.932 6.291-8.186 13.421.274 17.617 5.933 2.944 13.124 2.234 18.962 5.263-.754 1.205-1.259 2.568-2.079 3.732-1.034 1.468-1.953 1.455-3.548 2.043-2.924 1.078-1.509 2.832-1.809 5.144-.267 2.051-3.013 4.389-4.323 5.895-1.973 2.269-4.012 4.518-5.603 7.082-3.45 5.557-3.449 11.614-.288 17.294 2.778 4.993 6.746 10.67 11.626 13.769 5.327 3.384 11.606 6.305 17.453 8.654 5.257 2.111 10.819 3.462 16.442 4.143 4.215.511 10.015 1.005 13.389-2.166 3.092-2.907 3.825-7.53 2.376-11.392-3.399-9.056-13.779-14.506-21.328-19.634 2.393-.835 5.544-1.116 7.402-3.019 2.323-2.378.178-4.418-2.49-4.391-2.314.024-4.673.777-6.873 1.445-1.954.593-5.545 2.252-7.526 1.057-2.618-1.581.246-3.174 1.659-3.888 2.653-1.34 2.506-3.045-.062-4.442-4.147-2.255 1.797-2.353 2.417-4.387.784-2.57-2.482-5.044-2.254-7.849.217-2.678 1.045-7.381 3.136-9.296 1.445-1.322 3.916-1.205 5.727-1.498 2.932-.474 5.801-1.346 8.627-2.245.86 5.048 4.88.51 6.466-1.505 2.987-3.796 4.223-8.391 5.799-12.875 1.775-5.051 3.284-10.01 4.224-15.292 1.024-5.757.544-11.296-.315-17.04M140.838 354.82c-.822.926-4.756-.355-5.836-.489-3.206-.4-6.211-.298-9.383-1.098-2.43-.613-5.991-1.965-8.358-1.604-.199.031.033.691-.306.687-.44-.006-.675-.329-1.115-.498-1.043-.401-1.866-1.304-2.963-.516-.518-2.447-1.413-.303-2.643-.321-1.298-.019-.823-1.563-2.183-1.762-1.08-.158-1.531.512-2.725.051-1.655-.638-2.829-1.566-4.645-2.009-2.055-.501-3.413-1.22-5.303-2.058-1.654-.732-3.486-.964-5.162-1.653-4.337-1.784-8.585-3.991-12.705-6.223-7.837-4.246-15.575-8.241-22.619-13.778-2.578-2.026-4.396-4.272-6.44-6.795-1.386-1.714-3.773-5.002-6.366-4.457.607-1.678-1.01-3.136-2.076-4.172-1.644-1.599-3.047-3.288-4.408-5.147-1.28-1.748-2.18-3.514-2.974-5.512-.602-1.515-.991-3.029-2.643-1.513-3.29 3.019.934 8.977 2.76 11.631 3.018 4.388 6.023 8.848 9.617 12.791 6.7 7.353 14.337 14.047 22.93 19.079 4.441 2.6 9.12 4.9 13.937 6.712 4.303 1.618 8.553 2.468 12.97 3.626 2.631.69 5.135 1.602 7.82 2.083 1.044.187 2.071.44 3.132.493.275.015.729-.347.904-.331.422.039.745.425 1.363.56.736.162 1.466.092 2.039.338.234.1.81.825 1.42 1.05.993.367 1.762.537 2.78.228.863-.262 1.563-1.162 2.531-1.071l-.406 1.734c.984-.378 1.444-.035 2.347-.21-.175.034 1.892-.441 1.684-.497.143.038.676 1.013 1.189 1.256 2.117 1.003 4.701.256 6.938.425 2.297.173 4.55.51 6.865.677 1.703.122 9.707 1.153 9.882-1.761a3.6 3.6 0 0 0-1.849.054M356.581 87.008c.662-5.65-1.219-10.368-2.683-15.678-1.2-4.351-2.686-8.685-5.725-12.176-2.76-3.17-6.936-7.221-11.409-7.436-3.478-.167-5.853 2.552-2.82 5.069 3.027 2.51 5.777 4.134 8.171 7.408 2.758 3.773 4.837 8.032 6.38 12.429 2.81 8.01 4.405 17.457 1.748 25.686-.264.816-1.304 3.149-.263 3.804 1.192.75 2.113-1.044 2.44-1.813.305-.717 1.67-7.496 2.883-6.59-.076-.934-.479-1.37-.421-2.292.033-.533.493-1.29.535-1.98.138-2.263.904-4.212 1.164-6.43" clip-rule="evenodd"/><path fill="#111928" fill-rule="evenodd" d="M147.426 57.456c3.65.079 3.777-8.1 4.913-10.32.534-1.042 1.089-2.295 1.68-3.266.459-.754 1.021-.868 1.358-1.467 1.121-1.988.341-3.569-.162-5.491 1.326-.213 1.776-.208 2.252-1.531.141-.391-.196-1.1.083-1.395.384-.405 1.033-.185 1.424-.525.102-.09.063-.942.187-1.262.279-.723.502-1 1.039-1.553.723-.745 2.69-1.15 2.038-2.453q.729-.03 1.39-.34c.142-.65-1.183-.402-1.076-.776.229-.793 1.475-1.836 2.263-1.998l-2.018-1.051c1.691-.356 1.643-1.358 3.364-.22-.189-1.589 1.98-3.046 2.92-4.07 1.768-1.922 3.746-3.553 5.7-5.283 1.7-1.505 3.271-3.109 4.857-4.727.811-.829 1.636-1.645 2.568-2.337.952-.708 1.696-.57 2.572-1.053 1.398-.772 2.244-2.338 3.65-3.125.633-.355.904.047 1.365-.398.43-.415.82-1.785.569-2.315-1.054-2.232-8.675 3.687-9.871 4.457-14.531 9.349-26.23 22.235-32.595 38.404-.865 2.197-5.795 13.978-.47 14.095m-4.161 298.772 3.452-.751c-2.619-1.434-2.834-1.362-3.452.751m51.336-258.563c1.949-.184 6.201-2.193 5.557-4.932-.593-2.528-2.889.196-4.461-.09-1.678-.303-2.458-3.885-3.869-.232-.757 1.962.36 5.482 2.773 5.254" clip-rule="evenodd"/></svg>