<svg xmlns="http://www.w3.org/2000/svg" width="204" height="52" fill="none">
    <path fill="#231E1F"
          d="M67.138 10.09c-2.911 1.22-6.112 4.663-7.123 8.993-1.282 5.481 4.048 7.796 4.483 7.04.513-.895-.958-1.196-1.258-4.038-.386-3.675 1.316-7.782 3.464-9.583.4-.33.38.135.38.992 0 1.545-.085 15.37-.085 18.257 0 3.907-.16 5.137-.455 6.352-.29 1.236-.76 2.069-.406 2.393.4.358 2.103-.495 3.09-1.874 1.18-1.652 1.596-3.637 1.673-5.792.087-2.595.082-6.72.087-9.07 0-2.16.034-8.474-.034-12.275-.02-.93-2.602-1.904-3.816-1.395zm134.22 20.513c-.416 0-.614.436-.774 1.167-.551 2.552-1.131 3.128-1.881 3.128-.837 0-1.587-1.263-1.784-3.792-.15-1.985-.126-5.646.067-9.288.039-.745-.165-1.485-2.167-2.217-.865-.31-2.118-.775-2.741.736-1.766 4.257-2.452 7.646-2.617 9.017-.004.072-.091.082-.107-.082-.1-1.1-.333-3.1-.362-7.304-.01-.812-.179-1.515-1.088-2.087-.585-.367-2.365-1.026-3.008-.246-.552.64-1.194 2.354-1.866 4.387-.542 1.657-.919 2.78-.919 2.78s.003-4.465.014-6.16c0-.64-.436-.852-.566-.891-.595-.175-1.77-.46-2.263-.46-.614 0-.76.344-.76.843 0 .062-.101 5.873-.101 9.936v.572c-.334 1.87-1.436 4.407-2.631 4.407-1.194 0-1.76-1.061-1.76-5.903 0-2.824.087-4.053.126-6.097.024-1.177.072-2.082.068-2.29-.011-.625-1.099-.945-1.602-1.061a4.803 4.803 0 0 0-1.295-.146c-.484.03-.827.349-.827.795v.677c-.624-.987-1.636-1.675-2.312-1.873-1.808-.538-3.7-.059-5.127 1.936-1.131 1.59-1.813 3.385-2.079 5.966-.198 1.89-.135 3.802.218 5.42-.426 1.825-1.21 2.576-2.065 2.576-1.248 0-2.147-2.035-2.045-5.555.072-2.314.531-3.936 1.039-6.29.218-1.003.039-1.525-.401-2.034-.402-.456-1.263-.693-2.495-.407-.876.208-2.138.43-3.284.6 0 0 .067-.276.126-.764.295-2.563-2.486-2.354-3.372-1.535-.532.488-.894 1.064-1.03 2.1-.217 1.648 1.123 2.422 1.123 2.422-.44 2.015-1.514 4.649-2.631 6.552-.595 1.022-1.05 1.773-1.639 2.576-.006-.295-.006-.596-.006-.89-.01-4.238.043-7.574.068-8.775.024-1.177.073-2.059.073-2.267-.011-.456-.276-.634-.838-.847a6.034 6.034 0 0 0-1.682-.383c-.759-.058-1.224.349-1.209.828v.644c-.629-.987-1.64-1.675-2.307-1.873-1.814-.538-3.704-.059-5.131 1.936-1.127 1.59-1.872 3.812-2.085 5.942-.193 1.996-.159 3.68.112 5.105-.29 1.423-1.117 2.915-2.055 2.915-1.195 0-1.877-1.061-1.877-5.903 0-2.824.087-4.053.131-6.097.024-1.177.068-2.082.063-2.29-.006-.625-1.093-.945-1.601-1.061a4.79 4.79 0 0 0-1.335-.146c-.464.039-.788.45-.788.765v.707c-.628-.987-1.64-1.675-2.312-1.873-1.809-.538-3.685-.049-5.121 1.936-.938 1.294-1.697 2.731-2.089 5.918-.106.92-.16 1.782-.155 2.586-.373 2.285-2.021 4.92-3.366 4.92-.793 0-1.547-1.53-1.547-4.799 0-4.348.27-10.547.319-11.147 0 0 1.702-.03 2.036-.034.846-.005 1.62.014 2.747-.044.571-.029 1.117-2.068.527-2.324-.262-.112-2.138-.214-2.883-.228-.628-.014-2.365-.145-2.365-.145s.156-4.111.19-4.542c.028-.368-.436-.552-.706-.664-.654-.28-1.239-.411-1.926-.552-.962-.198-1.392-.004-1.474.803-.126 1.226-.194 4.82-.194 4.82-.706 0-3.1-.142-3.802-.142-.651 0-1.358 2.81-.454 2.844 1.04.038 2.844.078 4.043.11 0 0-.053 6.301-.053 8.243v.6c-.662 3.443-2.979 5.303-2.979 5.303.498-2.281-.518-3.99-2.355-5.433-.677-.538-2.011-1.55-3.507-2.65 0 0 .866-.856 1.635-2.57.542-1.217.567-2.615-.769-2.921-2.205-.508-4.019 1.114-4.565 2.847-.416 1.337-.197 2.335.628 3.366l.189.233c-.493.958-1.18 2.25-1.755 3.253-1.61 2.785-2.825 4.984-3.739 4.984-.734 0-.725-2.233-.725-4.325 0-1.802.135-4.518.242-7.326.034-.926-.43-1.458-1.208-1.937-.475-.29-1.481-.862-2.066-.862-.87 0-3.395.116-5.778 7.016-.3.872-.891 2.456-.891 2.456l.053-8.3c0-.194-.101-.378-.338-.51-.401-.217-1.48-.662-2.427-.662-.46 0-.688.213-.688.634l-.077 12.978c0 .988.024 2.14.121 2.644.096.504.256.915.45 1.161.194.238.42.422.788.504.343.073 2.234.31 2.331-.411.121-.867.125-1.801 1.117-5.302 1.547-5.443 3.56-8.097 4.508-9.042.169-.164.357-.174.347.098-.043 1.195-.183 4.174-.28 6.706-.256 6.784.972 8.038 2.737 8.038 1.345 0 3.24-1.34 5.277-4.73 1.271-2.117 2.5-4.184 3.39-5.68.61.57 1.305 1.186 1.996 1.845 1.611 1.524 2.138 2.977 1.786 4.353-.267 1.055-1.277 2.14-3.071 1.085-.523-.306-.745-.543-1.272-.892-.28-.189-.716-.242-.973-.048-.677.509-1.06 1.152-1.282 1.952-.207.78.571 1.186 1.379 1.544.691.315 2.181.59 3.133.625 3.71.126 6.679-1.792 8.744-6.731.373 4.266 1.944 6.682 4.677 6.682 1.832 0 3.665-2.368 4.469-4.697.226.95.569 1.772 1.01 2.475 2.109 3.34 6.2 2.625 8.25-.213.638-.882.736-1.197.736-1.197.299 2.68 2.456 3.622 3.69 3.622 1.387 0 2.81-.657 3.81-2.915.121.248.247.48.392.703 2.104 3.34 6.194 2.625 8.25-.213.092-.14.179-.257.251-.369l.064 1.763s-1.176 1.075-1.896 1.738c-3.167 2.911-5.577 5.12-5.755 7.685-.222 3.279 2.428 4.495 4.439 4.654 2.129.17 3.957-1.007 5.078-2.663.986-1.453 1.635-4.576 1.587-7.666-.02-1.24-.049-2.808-.078-4.498a34.882 34.882 0 0 0 3.526-4.842c1.261-2.083 2.606-4.887 3.292-7.07 0 0 1.176.01 2.424-.068.402-.025.517.058.44.348-.088.353-1.577 6.112-.218 9.947.934 2.624 3.027 3.471 4.275 3.471 1.455 0 2.849-1.104 3.593-2.74.092.18.184.358.291.523 2.104 3.34 6.18 2.62 8.25-.213.469-.644.731-1.197.731-1.197.444 2.776 2.601 3.633 3.834 3.633 1.291 0 2.51-.528 3.501-2.872.039 1.032.102 1.874.208 2.14.063.165.431.368.692.47 1.18.436 2.379.228 2.819.135.31-.062.551-.304.581-.944.086-1.675.033-4.489.541-6.585.856-3.506 1.649-4.867 2.026-5.54.209-.378.45-.441.455-.044.014.809.058 3.182.391 6.378.238 2.344.562 3.733.813 4.174.706 1.254 1.586 1.313 2.297 1.313.455 0 1.403-.127 1.32-.926-.043-.387.03-2.794.866-6.25.551-2.262 1.465-4.301 1.794-5.047.126-.276.18-.063.18-.02-.073 1.555-.228 6.644.4 9.424.862 3.773 3.342 4.194 4.208 4.194 1.842 0 3.357-1.405 3.864-5.104.126-.892-.058-1.58-.605-1.58h.001zm-77.324-2.286c-.102 1.956-.484 3.594-1.093 4.78-1.112 2.155-3.302 2.833-4.265-.27-.701-2.243-.465-5.304-.169-6.956.425-2.45 1.504-4.183 3.186-4.024 1.722.17 2.563 2.393 2.341 6.47zm16.873.03c-.097 1.844-.575 3.703-1.098 4.75-1.078 2.17-3.332 2.847-4.265-.27-.638-2.137-.488-4.892-.17-6.626.412-2.257 1.403-4.354 3.188-4.354 1.736 0 2.592 1.909 2.345 6.5zm.44 12.609c-.024 3.375-.551 6.33-1.683 7.191-1.615 1.22-3.786.3-3.337-2.16.397-2.179 2.278-4.401 5.026-7.118 0 0 .009.62-.006 2.087zm29.133-12.59c-.097 2.03-.547 3.613-1.103 4.731-1.079 2.17-3.313 2.842-4.266-.27-.517-1.701-.542-4.54-.169-6.906.378-2.413 1.437-4.233 3.187-4.074 1.731.165 2.54 2.393 2.351 6.519z"></path>
    <path fill="url(#a)" d="M40.967 12.267a2.903 2.903 0 1 0-5.805 0 2.902 2.902 0 0 0 5.805 0z"></path>
    <path fill="url(#b)"
          d="M44.834 34.93c-.107 2.356-.501 3.637-.829 4.487-.44 1.127-.963 1.933-1.814 2.78-.84.845-1.647 1.368-2.774 1.802-.85.332-2.136.728-4.492.84-2.547.112-3.302.136-9.762.136-6.454 0-7.215-.024-9.762-.136-2.357-.112-3.636-.508-4.486-.84-1.133-.434-1.933-.957-2.779-1.803-.852-.846-1.376-1.652-1.81-2.78-.327-.85-.727-2.13-.828-4.486-.124-2.547-.147-3.314-.147-9.761 0-6.46.023-7.22.147-9.768.101-2.357.501-3.636.829-4.493.433-1.126.957-1.928 1.809-2.773.846-.845 1.646-1.369 2.779-1.808.85-.334 2.13-.723 4.486-.835 2.547-.113 3.308-.141 9.762-.141 6.46 0 7.215.028 9.762.14 2.357.113 3.642.502 4.492.836 1.127.439 1.933.963 2.774 1.808.85.845 1.375 1.647 1.814 2.773.328.857.722 2.136.83 4.493.117 2.547.146 3.308.146 9.768 0 6.447-.029 7.213-.147 9.761zm4.351-19.727c-.118-2.575-.524-4.335-1.127-5.867-.614-1.59-1.437-2.937-2.784-4.284-1.341-1.34-2.688-2.164-4.278-2.785-1.538-.597-3.292-1.008-5.868-1.12C32.552 1.023 31.73 1 25.163 1c-6.56 0-7.39.023-9.965.147-2.57.112-4.322.523-5.868 1.12-1.583.621-2.93 1.444-4.272 2.785-1.347 1.347-2.17 2.695-2.79 4.284-.597 1.532-1.003 3.292-1.127 5.867-.112 2.576-.141 3.4-.141 9.966 0 6.56.029 7.383.14 9.96.125 2.57.531 4.327 1.128 5.867.62 1.583 1.443 2.937 2.79 4.278 1.341 1.34 2.689 2.17 4.272 2.79 1.546.597 3.298 1.003 5.868 1.121 2.576.118 3.405.147 9.965.147 6.566 0 7.39-.029 9.965-.147 2.576-.118 4.33-.524 5.868-1.121 1.59-.62 2.937-1.45 4.278-2.79 1.347-1.341 2.17-2.695 2.784-4.278.603-1.54 1.009-3.298 1.127-5.868.118-2.576.147-3.399.147-9.959 0-6.566-.029-7.39-.147-9.966z"></path>
    <path fill="url(#c)" d="M25.163 33.217c-4.446 0-8.054-3.602-8.054-8.048a8.057 8.057 0 1 1 16.114 0c0 4.446-3.612 8.048-8.06 8.048zm0-20.465c-6.854 0-12.405 5.563-12.405 12.417 0 6.848 5.551 12.405 12.405 12.405 6.854 0 12.411-5.557 12.411-12.405 0-6.854-5.557-12.417-12.41-12.417z"></path>
    <defs>
        <linearGradient id="a" x1="1.436" x2="45.307" y1="48.832" y2="4.962" gradientUnits="userSpaceOnUse">
            <stop stop-color="#FFD521"></stop>
            <stop offset=".05" stop-color="#FFD521"></stop>
            <stop offset=".501" stop-color="#F50000"></stop>
            <stop offset=".95" stop-color="#B900B4"></stop>
            <stop offset=".95" stop-color="#B900B4"></stop>
            <stop offset="1" stop-color="#B900B4"></stop>
        </linearGradient>
        <linearGradient id="b" x1="1.436" x2="45.343" y1="48.892" y2="4.986" gradientUnits="userSpaceOnUse">
            <stop stop-color="#FFD521"></stop>
            <stop offset=".05" stop-color="#FFD521"></stop>
            <stop offset=".501" stop-color="#F50000"></stop>
            <stop offset=".95" stop-color="#B900B4"></stop>
            <stop offset=".95" stop-color="#B900B4"></stop>
            <stop offset="1" stop-color="#B900B4"></stop>
        </linearGradient>
        <linearGradient id="c" x1="1.447" x2="45.343" y1="48.894" y2="4.998" gradientUnits="userSpaceOnUse">
            <stop stop-color="#FFD521"></stop>
            <stop offset=".05" stop-color="#FFD521"></stop>
            <stop offset=".501" stop-color="#F50000"></stop>
            <stop offset=".95" stop-color="#B900B4"></stop>
            <stop offset=".95" stop-color="#B900B4"></stop>
            <stop offset="1" stop-color="#B900B4"></stop>
        </linearGradient>
    </defs>
</svg>
