<svg width="1440" height="1113" viewBox="0 0 1440 1113" fill="none" xmlns="http://www.w3.org/2000/svg">
    <g clip-path="url(#clip0_1_3460)">
        <g opacity="0.18">
            <mask id="mask0_1_3460" style="mask-type:alpha" maskUnits="userSpaceOnUse" x="0" y="-505" width="1920" height="2265">
                <rect y="-504.505" width="1920" height="2264.01" rx="24" fill="#181059"/>
            </mask>
            <g mask="url(#mask0_1_3460)">
                <path d="M596.918 -435.012C764.303 -378.005 494.793 121.489 1305.84 121.489C1734.15 121.489 1641.84 529.59 1900.3 558.546" stroke="#79747E"/>
                <path d="M805.539 -667.383C972.923 -610.376 703.414 -110.882 1514.46 -110.882C1942.77 -110.882 1850.46 297.219 2108.92 326.175" stroke="#79747E"/>
                <path d="M-245.899 -184.897C25.7686 -221.076 581.976 -221.128 470.409 -7.81C285.793 345.178 720.461 691.969 1880.87 760.518" stroke="#79747E"/>
                <path d="M-620.308 -53.3291C-284.496 -97.9782 403.037 -98.0423 265.128 165.216C36.9232 600.844 574.221 1028.82 2008.62 1113.42" stroke="#79747E"/>
                <path d="M-967.385 166.79C-587.239 116.229 191.065 116.156 34.9487 414.275C-223.385 907.588 384.849 1392.24 2008.62 1488.04" stroke="#79747E"/>
            </g>
        </g>
    </g>
    <defs>
        <clipPath id="clip0_1_3460">
            <rect width="1440" height="1113" fill="white"/>
        </clipPath>
    </defs>
</svg>
