<?xml version="1.0" encoding="UTF-8" standalone="no"?>
<!-- Generator: Gravit.io -->
<svg xmlns="http://www.w3.org/2000/svg" xmlns:xlink="http://www.w3.org/1999/xlink" style="isolation:isolate" viewBox="0 0 18 18" width="18pt" height="18pt"><defs><clipPath id="_clipPath_szhkNWec4uBbHeA9QU4v3ogkcoki6BBH"><rect width="18" height="18"/></clipPath></defs><g clip-path="url(#_clipPath_szhkNWec4uBbHeA9QU4v3ogkcoki6BBH)"><circle vector-effect="non-scaling-stroke" cx="9" cy="9" r="9" fill="rgb(249,51,81)"/><path d=" M 13.249 12.035 L 10.214 9 L 13.249 5.965 C 13.584 5.63 13.584 5.087 13.249 4.751 C 12.913 4.416 12.37 4.416 12.035 4.751 L 9 7.786 L 5.965 4.751 C 5.63 4.416 5.087 4.416 4.751 4.751 C 4.416 5.087 4.416 5.63 4.751 5.965 L 7.786 9 L 4.751 12.035 C 4.416 12.37 4.416 12.913 4.751 13.249 C 5.087 13.584 5.63 13.584 5.965 13.249 L 9 10.214 L 12.035 13.249 C 12.37 13.584 12.913 13.584 13.249 13.249 C 13.584 12.913 13.584 12.37 13.249 12.035 Z " fill="rgb(255,255,255)"/></g></svg>