<svg xmlns="http://www.w3.org/2000/svg" width="37" height="37" fill="none"><path fill="#fff" d="M30.58 8.305h-2.587c.618-.45 1.125-.956 1.35-1.575.337-.844.337-2.25-1.407-3.881-1.856-1.8-3.543-1.8-4.612-1.519-2.419.619-4.05 3.431-4.95 5.456-.9-2.025-2.531-4.78-4.95-5.456-1.069-.281-2.756-.225-4.613 1.519C7.068 4.536 7.124 5.886 7.405 6.73c.225.619.731 1.125 1.35 1.575H5.718a3 3 0 0 0-2.982 2.981V15c0 1.575 1.294 2.869 2.87 2.925V31.65c0 1.912 1.574 3.544 3.543 3.544h18.394c1.912 0 3.543-1.575 3.543-3.544V17.868a2.964 2.964 0 0 0 2.475-2.925V11.23c0-1.631-1.35-2.925-2.98-2.925m-6.637-4.612c.056 0 .225-.057.393-.057.394 0 1.013.17 1.857.957.675.618.843 1.068.787 1.18-.281.788-3.094 1.632-6.3 1.97.788-1.744 1.969-3.713 3.263-4.05M10.5 4.649c.844-.788 1.462-.956 1.856-.956.169 0 .281.056.394.056 1.294.337 2.531 2.25 3.319 4.05-3.207-.338-6.02-1.181-6.3-1.969-.057-.169.112-.562.73-1.181M5.268 14.943V11.23c0-.225.168-.45.45-.45H30.58c.225 0 .45.169.45.45v3.713c0 .225-.169.45-.45.45H5.718a.444.444 0 0 1-.45-.45M27.543 32.66H9.149c-.563 0-1.013-.45-1.013-1.012V17.924H28.5v13.725c.056.562-.394 1.012-.956 1.012"/></svg>