<svg xmlns="http://www.w3.org/2000/svg" width="200" height="52" fill="none"><path fill="#4a6cf7" d="M19.355 4.27c0-2.359 1.924-4.27 4.3-4.27h2.151C40.06 0 51.613 11.473 51.613 25.625v21.354c0 2.36-1.925 4.271-4.301 4.271H45.16c-14.253 0-25.806-11.472-25.806-25.625z" opacity=".56"/><path fill="#4a6cf7" d="M21.505 51.25c11.878 0 21.506-9.56 21.506-21.354S33.383 8.542 21.505 8.542 0 18.102 0 29.896 9.628 51.25 21.505 51.25" opacity=".88"/><path fill="#fff" d="M81.023 40.717h7.175L78.125 12.813H70.28L60.215 40.717h7.093l1.668-4.93h10.379zm-3.41-10.176H70.76l3.401-10.216zm23.83 1.868-5.111-13.873H88.76l9 21.425-5.078 11.289h7.299l13.872-32.714h-7.332zm21.633-1.988c0-3.816 1.866-4.929 5.079-4.929h1.857v-7.194c-2.972 0-5.392 1.59-6.936 3.935v-3.697h-6.779v22.18h6.779zm31.815-.795c0-7.035-4.987-11.408-11.494-11.408-6.457 0-11.494 4.373-11.494 11.408 0 7.036 4.922 11.408 11.42 11.408s11.568-4.372 11.568-11.408m-16.085 0c0-3.776 2.139-5.525 4.591-5.525 2.378 0 4.6 1.75 4.6 5.525 0 3.737-2.255 5.526-4.674 5.526-2.461 0-4.517-1.79-4.517-5.526m30.766.875c0 7.194 4.674 10.494 10.388 10.494 5.705 0 10.421-3.3 10.421-10.494V13.01h-3.609v17.53c0 5.088-2.692 7.274-6.779 7.274-4.079 0-6.812-2.186-6.812-7.274V13.01h-3.609zM196.4 40.716h3.6V13.011h-3.6z"/></svg>