<svg xmlns="http://www.w3.org/2000/svg" width="127" height="33" fill="none"><clipPath id="a"><path d="M0 0h127v32.564H0z"/></clipPath><g clip-path="url(#a)"><g fill="#542ded"><path d="M12.93 24.423a2.713 2.713 0 1 0 0 5.427 2.713 2.713 0 0 0 0-5.427m10.869 0a2.713 2.713 0 1 0 0 5.426 2.713 2.713 0 0 0 0-5.426" opacity=".64"/><path d="M26.458 5.427H8.738a.68.68 0 0 0-.448.19l2.714 11.832c0 .095 0 .176.095.271a3.35 3.35 0 0 0 2.605 1.221H23.8a6.12 6.12 0 0 0 6.052-6.065v-4.07a3.39 3.39 0 0 0-3.393-3.379"/><path d="M24.613 22.781h-9.226A6.27 6.27 0 0 1 9.24 17.87L6.526 5.889A1.845 1.845 0 0 0 4.762 4.45h-1.18a.868.868 0 0 1 0-1.736h1.18a3.57 3.57 0 0 1 3.501 2.795l2.714 11.98a4.545 4.545 0 0 0 4.45 3.556h9.227a.868.868 0 1 1 0 1.736z" opacity=".8"/></g><path fill="#fff" d="M46.909 14.817q-1.661 0-2.654-1.026-.994-1.043-1.091-2.833l-.017-.554.017-.537q.097-1.759 1.09-2.8.994-1.043 2.655-1.043 1.79 0 2.768 1.14.993 1.14.993 3.094v.293q0 .162-.114.277a.35.35 0 0 1-.26.097h-5.65v.147q.049 1.058.65 1.807.603.75 1.596.75.765 0 1.238-.294.488-.31.732-.635.147-.195.228-.228.082-.049.277-.049h.717q.146 0 .244.082a.25.25 0 0 1 .114.211q0 .36-.44.863c-.44.503-.71.63-1.254.88q-.797.358-1.84.358m2.28-4.999V9.77q0-1.14-.62-1.856-.618-.716-1.66-.716-1.06 0-1.661.716-.603.716-.603 1.856v.05zm6.196 4.999q-1.742 0-2.72-.977-.975-.993-1.025-2.768l-.016-.651.016-.652q.05-1.774 1.026-2.751.977-.994 2.719-.994 1.173 0 1.97.424.815.406 1.205 1.026.407.618.44 1.237.015.147-.114.26a.36.36 0 0 1-.26.114h-.717q-.163 0-.244-.065a.9.9 0 0 1-.163-.276q-.294-.798-.814-1.124-.506-.342-1.287-.342-1.025 0-1.628.635t-.651 1.938l-.017.57.017.57q.049 1.302.651 1.937c.602.635.944.635 1.628.635q.798 0 1.303-.326.504-.342.798-1.14.08-.194.163-.26.08-.081.244-.081h.716q.147 0 .26.114.13.114.115.26-.033.603-.44 1.221-.39.62-1.205 1.042-.798.424-1.97.424m8.35 0q-1.792 0-2.769-1.01-.96-1.01-1.025-2.686l-.017-.7.017-.7q.064-1.678 1.042-2.687.993-1.01 2.752-1.01c1.758 0 2.084.337 2.735 1.01q.993 1.01 1.058 2.686a7.7 7.7 0 0 1 0 1.4q-.064 1.678-1.042 2.687-.96 1.01-2.752 1.01m0-1.221q1.041 0 1.644-.652.619-.668.667-1.905.017-.162.017-.618c0-.456-.006-.51-.017-.62q-.048-1.237-.667-1.888-.603-.667-1.645-.667-1.041 0-1.66.667-.603.651-.652 1.889l-.016.619.016.618q.05 1.237.652 1.905.619.651 1.66.652m5.605 1.058a.4.4 0 0 1-.277-.098.4.4 0 0 1-.098-.277V6.562q0-.164.098-.26a.38.38 0 0 1 .277-.115h.684q.162 0 .26.114a.35.35 0 0 1 .098.26v.554q.879-1.09 2.377-1.09 1.79 0 2.54 1.497.39-.684 1.107-1.09a3.3 3.3 0 0 1 1.628-.408q1.335 0 2.182.912c.847.912.847 1.487.847 2.638v4.705q0 .163-.114.277a.35.35 0 0 1-.26.098h-.7a.4.4 0 0 1-.278-.098.4.4 0 0 1-.097-.277V9.72q0-1.302-.538-1.856-.537-.57-1.416-.57-.782 0-1.351.587-.555.57-.554 1.84v4.558q0 .163-.114.277a.35.35 0 0 1-.26.098h-.717a.4.4 0 0 1-.277-.098.4.4 0 0 1-.097-.277V9.72q0-1.286-.57-1.856-.554-.57-1.384-.57-.782 0-1.352.57-.553.57-.553 1.84v4.575q0 .163-.114.277a.35.35 0 0 1-.26.098zm13.802 0a.4.4 0 0 1-.277-.098.4.4 0 0 1-.098-.277V6.562q0-.164.098-.26a.38.38 0 0 1 .277-.115h.684q.163 0 .26.114a.35.35 0 0 1 .098.26v.554q.88-1.09 2.377-1.09 1.791 0 2.54 1.497.39-.684 1.107-1.09a3.3 3.3 0 0 1 1.629-.408q1.335 0 2.181.912t.847 2.638v4.705q0 .163-.114.277a.35.35 0 0 1-.26.098h-.7a.4.4 0 0 1-.277-.098.4.4 0 0 1-.098-.277V9.72q0-1.302-.537-1.856-.537-.57-1.417-.57-.781 0-1.351.587-.555.57-.554 1.84v4.558q0 .163-.114.277a.35.35 0 0 1-.26.098h-.717a.4.4 0 0 1-.277-.098.4.4 0 0 1-.097-.277V9.72q0-1.286-.57-1.856-.553-.57-1.384-.57-.781 0-1.352.57-.552.57-.553 1.84v4.575q0 .163-.114.277a.35.35 0 0 1-.26.098zm16.782.163q-1.66 0-2.654-1.026-.993-1.043-1.091-2.833l-.016-.554.016-.537q.098-1.759 1.09-2.8.994-1.043 2.655-1.043 1.79 0 2.768 1.14.993 1.14.993 3.094v.293q0 .162-.114.277a.35.35 0 0 1-.261.097h-5.65v.147q.05 1.058.652 1.807.602.75 1.596.75.765 0 1.237-.294.489-.31.733-.635.145-.195.228-.228.081-.049.276-.049h.717q.146 0 .244.082a.25.25 0 0 1 .114.211q0 .36-.44.863c-.44.503-.71.63-1.253.88q-.798.358-1.84.358m2.279-4.999V9.77q0-1.14-.618-1.856-.62-.716-1.661-.716-1.06 0-1.661.716-.602.716-.602 1.856v.05zm3.185 4.836a.4.4 0 0 1-.277-.098.4.4 0 0 1-.097-.277V6.578q0-.162.097-.277a.38.38 0 0 1 .277-.114h.684q.18 0 .277.114a.35.35 0 0 1 .114.277v.716q.667-1.107 2.263-1.107h.635q.18 0 .277.098.097.097.097.277v.602q0 .163-.097.277-.097.098-.277.098h-.928q-.895 0-1.417.52-.504.522-.504 1.417v4.803a.38.38 0 0 1-.114.277.4.4 0 0 1-.277.098zm8.323.163q-1.74 0-2.719-.977-.977-.993-1.025-2.768l-.017-.651.017-.652q.048-1.774 1.025-2.751.978-.994 2.719-.994 1.173 0 1.971.424.814.406 1.204 1.026.408.618.44 1.237.017.147-.114.26a.36.36 0 0 1-.26.114h-.717q-.163 0-.244-.065a.9.9 0 0 1-.163-.276q-.292-.798-.814-1.124-.504-.342-1.286-.342-1.025 0-1.628.635t-.652 1.938l-.016.57.016.57q.05 1.302.652 1.937c.602.635.944.635 1.628.635q.798 0 1.302-.326.505-.342.798-1.14.082-.194.163-.26.082-.081.244-.081h.717q.146 0 .26.114.13.114.114.26-.032.603-.44 1.221-.39.62-1.204 1.042-.798.424-1.971.424m8.268 0q-1.66 0-2.654-1.026-.992-1.043-1.09-2.833l-.017-.554.017-.537q.098-1.759 1.09-2.8.994-1.043 2.654-1.043 1.792 0 2.768 1.14.994 1.14.994 3.094v.293q0 .162-.114.277a.35.35 0 0 1-.261.097h-5.65v.147q.05 1.058.652 1.807.603.75 1.595.75.766 0 1.238-.294.488-.31.732-.635.148-.195.228-.228.082-.049.277-.049h.716a.37.37 0 0 1 .245.082.25.25 0 0 1 .114.211q0 .36-.44.863c-.44.503-.711.63-1.254.88q-.796.358-1.84.358m2.28-4.999V9.77q0-1.14-.619-1.856-.618-.716-1.661-.716-1.057 0-1.66.716t-.603 1.856v.05z"/><path fill="#b6a4fb" fill-rule="evenodd" d="M77.34 17.91H47.828l-5.495 7.327 5.495 7.327h26.255zm1.628 0L75.71 32.564h5.09l5.495-7.327L80.8 17.91z" clip-rule="evenodd"/><path fill="#fff" d="M48.773 28.494a.23.23 0 0 1-.166-.069.23.23 0 0 1-.068-.166v-6.36q0-.107.058-.176a.24.24 0 0 1 .176-.068h.899q.107 0 .176.068a.24.24 0 0 1 .068.176v2.511h2.853V21.9q0-.108.068-.177c.068-.069.101-.068.166-.068h.909q.107 0 .166.068a.24.24 0 0 1 .068.176v6.36q0 .097-.068.166a.2.2 0 0 1-.166.068h-.909q-.097 0-.166-.068c-.069-.068-.068-.1-.068-.166v-2.608h-2.853v2.608q0 .097-.068.166a.24.24 0 0 1-.176.068zm8.25 0a.23.23 0 0 1-.166-.069.23.23 0 0 1-.069-.166v-5.383h-1.807q-.097 0-.166-.068c-.069-.068-.068-.104-.068-.176v-.733q0-.107.058-.176a.24.24 0 0 1 .176-.068h4.992q.108 0 .176.068c.068.068.068.105.068.176v.733q0 .107-.068.176c-.068.069-.104.068-.176.068h-1.797v5.383q0 .097-.069.166a.2.2 0 0 1-.166.068zm4.03 0q-.099 0-.167-.069c-.068-.069-.068-.1-.068-.166v-6.36q0-.107.058-.176a.24.24 0 0 1 .176-.068h.792q.184 0 .293.186l1.885 3.497 1.886-3.497q.107-.186.292-.186h.782q.108 0 .176.068c.068.068.068.105.068.176v6.36q0 .107-.068.176a.26.26 0 0 1-.176.059h-.84q-.097 0-.166-.069c-.07-.069-.068-.1-.068-.166v-4.2l-1.358 2.578q-.108.215-.323.215h-.41q-.206 0-.332-.215l-1.358-2.579v4.201q0 .097-.069.166a.2.2 0 0 1-.166.068zm7.536 0q-.097 0-.166-.069c-.069-.069-.068-.1-.068-.166v-6.37q0-.107.068-.166a.23.23 0 0 1 .166-.068h.919q.107 0 .166.068.068.06.068.166v5.432h3.097q.107 0 .176.069c.069.069.068.1.068.166v.703q0 .097-.068.166c-.068.07-.104.068-.176.068z"/></g></svg>