<svg xmlns="http://www.w3.org/2000/svg" width="127" height="21" fill="none"><path fill="#fff" d="M26.78 17.212h2.57v-4.696h2.718c3.283 0 5.005-1.933 5.005-4.643s-1.766-4.607-5.005-4.607h-5.296zm2.57-6.77V5.411h2.356c1.924 0 2.78 1.015 2.78 2.498s-.882 2.533-2.762 2.533zm12.357-7.14h-2.472v13.91h2.516zm5.649 14.122a3.3 3.3 0 0 0 3.169-1.606h.08v1.43h2.409V10.23c0-2.754-2.295-3.583-4.325-3.583-2.242 0-3.964.98-4.51 2.877l2.347.327a2.13 2.13 0 0 1 2.18-1.324c1.166 0 1.766.582 1.766 1.606 0 .706-.76.742-2.648.936-2.066.22-4.043.82-4.043 3.169.053 2.1 1.58 3.186 3.61 3.186zm.653-1.765c-1.05 0-1.765-.468-1.765-1.368s.882-1.342 1.96-1.492a7.8 7.8 0 0 0 2.312-.512v1.227a2.25 2.25 0 0 1-2.472 2.11zm7.494 1.597h2.507V6.788h-2.472zM56.765 5.34a1.395 1.395 0 0 0 1.492-1.368 1.456 1.456 0 0 0-2.904 0A1.395 1.395 0 0 0 56.8 5.305zm6.338 5.8a2.163 2.163 0 0 1 2.295-2.384 1.977 1.977 0 0 1 2.074 2.224v6.259h2.507v-6.664c0-2.498-1.448-3.928-3.646-3.928a3.2 3.2 0 0 0-3.177 1.906h-.124V6.788h-2.4v10.424h2.506zm10.01 6.108 1.518-4.193h5.967l1.518 4.193h1.36L78.345 3.31h-1.394l-5.164 13.902zm1.932-5.296 2.56-6.991h.07l2.516 6.929zm14.441 5.552a3.415 3.415 0 0 0 3.275-2.154h.15v1.933h1.21V3.31h-1.245v5.446h-.115a3.36 3.36 0 0 0-3.248-2.136c-2.648 0-4.414 2.171-4.414 5.384s1.81 5.429 4.422 5.429zm.15-1.104c-2.118 0-3.283-1.889-3.283-4.316 0-2.428 1.147-4.263 3.283-4.263s3.257 1.765 3.257 4.263-1.156 4.246-3.23 4.246zm7.997.883h1.227v-6.761a2.597 2.597 0 0 1 2.648-2.763 2.17 2.17 0 0 1 2.304 2.365v7.062h1.227v-6.841a2.4 2.4 0 0 1 .678-1.879 2.4 2.4 0 0 1 1.864-.716 2.195 2.195 0 0 1 2.249 1.51c.101.31.132.638.09.961v6.991h1.236V10.23c0-2.339-1.227-3.575-3.204-3.575a3.2 3.2 0 0 0-3.151 1.898h-.089a3.168 3.168 0 0 0-5.737-.159h-.115V6.788h-1.2zm16.771 0h1.245V6.788h-1.245zm.627-12.225a.88.88 0 0 0 .927-.883.927.927 0 0 0-1.854 0 .9.9 0 0 0 .311.608.88.88 0 0 0 .651.204zm5.111 5.702a2.75 2.75 0 0 1 .788-2.119 2.77 2.77 0 0 1 2.107-.82 2.555 2.555 0 0 1 2.517 1.71c.119.343.164.708.131 1.07v6.682h1.236V10.46c0-2.472-1.466-3.813-3.611-3.813a3.23 3.23 0 0 0-3.133 1.765h-.115V6.788h-1.2v10.424h1.235z"/><g fill="#2f80ed"><path d="m22.723 8.675-3.89-6.537A2.26 2.26 0 0 0 16.873 1H9.138a2.26 2.26 0 0 0-1.983 1.138L3.288 8.675a2.37 2.37 0 0 0 0 2.261l3.867 6.536a2.26 2.26 0 0 0 1.983 1.139h7.735a2.26 2.26 0 0 0 1.96-1.131l3.867-6.536a2.38 2.38 0 0 0 .023-2.27m-1.508 1.417-3.89 6.536a.56.56 0 0 1-.535.287H9.138a.61.61 0 0 1-.536-.287l-3.86-6.536a.69.69 0 0 1 0-.618L8.61 2.945a.56.56 0 0 1 .535-.286h7.728a.61.61 0 0 1 .535.286l3.867 6.536a.56.56 0 0 1-.053.61z"/><path stroke="#2f80ed" stroke-width=".5" d="M16.526 5.697h-1.553a2.315 2.315 0 0 0-2.33 2.261V9.61h-1.68a2.315 2.315 0 0 0-2.33 2.262v1.508a1.214 1.214 0 0 0 1.22 1.198h1.509a2.315 2.315 0 0 0 2.33-2.261v-1.621h1.688a2.315 2.315 0 0 0 2.33-2.262V6.925a1.207 1.207 0 0 0-1.184-1.228zm-3.883 6.634a1.23 1.23 0 0 1-1.244 1.214H9.892a.136.136 0 0 1-.136-.129V11.91A1.23 1.23 0 0 1 11 10.695h1.68zm4.018-3.936a1.236 1.236 0 0 1-1.244 1.222H13.73V7.966a1.23 1.23 0 0 1 1.244-1.222h1.553a.135.135 0 0 1 .135.136z"/></g></svg>