<svg xmlns="http://www.w3.org/2000/svg" width="176" height="32" fill="none"><path fill="#fff" d="M44 9.176h6.277v17.981h3.755V9.176h6.277V5.715H44zm20.5 18.363c2.258 0 4.224-1.027 4.84-2.523l.264 2.141h3.139v-8.8c0-4.018-2.406-6.13-6.307-6.13-3.93 0-6.512 2.053-6.512 5.192h3.05c0-1.526 1.174-2.406 3.286-2.406 1.819 0 2.992.792 2.992 2.758v.322l-4.341.323c-3.433.264-5.369 1.936-5.369 4.605 0 2.728 1.878 4.518 4.958 4.518m1.173-2.7c-1.613 0-2.493-.644-2.493-1.964 0-1.174.85-1.907 3.08-2.112l3.021-.235v.763c0 2.229-1.408 3.549-3.608 3.549M78.048 9.763c1.173 0 2.14-.968 2.14-2.171a2.134 2.134 0 0 0-2.14-2.141c-1.233 0-2.2.938-2.2 2.14 0 1.204.968 2.172 2.2 2.172m-1.79 17.394h3.579v-14.49h-3.579zm10.884 0V5.333h-3.55v21.824zm6.13 0 1.73-4.957h8.009l1.731 4.957h3.96l-7.744-21.442h-3.843L89.37 27.157zm5.28-15.048a15 15 0 0 0 .47-1.642c.058.44.263 1.085.44 1.642l2.464 6.923h-5.808zm17.606 15.43c2.2 0 4.078-.968 4.958-2.64l.234 2.258h3.286V5.333h-3.55v9.182c-.909-1.438-2.698-2.288-4.722-2.288-4.371 0-7.011 3.226-7.011 7.744 0 4.488 2.611 7.568 6.805 7.568m.792-3.286c-2.493 0-4.018-1.818-4.018-4.4 0-2.581 1.525-4.43 4.018-4.43 2.494 0 4.107 1.82 4.107 4.43s-1.613 4.4-4.107 4.4m14.994 2.904v-8.213c0-2.347 1.378-3.461 3.08-3.461 1.701 0 2.786 1.085 2.786 3.109v8.565h3.579v-8.213c0-2.376 1.32-3.49 3.051-3.49 1.701 0 2.816 1.085 2.816 3.167v8.536h3.549v-9.474c0-3.344-1.936-5.456-5.456-5.456-2.2 0-3.901 1.085-4.635 2.757-.762-1.672-2.288-2.757-4.488-2.757-2.082 0-3.549.938-4.282 2.14l-.294-1.7h-3.285v14.49zm24.163-17.394c1.174 0 2.142-.968 2.142-2.171a2.135 2.135 0 0 0-2.142-2.141c-1.232 0-2.2.938-2.2 2.14 0 1.204.968 2.172 2.2 2.172m-1.789 17.394h3.579v-14.49h-3.579zm10.855 0v-7.802c0-2.347 1.349-3.872 3.549-3.872 1.848 0 3.051 1.173 3.051 3.608v8.066h3.578V18.24c0-3.755-1.877-6.013-5.514-6.013-1.966 0-3.726.85-4.635 2.317l-.293-1.877h-3.315v14.49z"/><path fill="#3C50E0" d="M0 8.421C0 3.771 3.77 0 8.421 0H23.58C28.229 0 32 3.77 32 8.421V23.58c0 4.649-3.77 8.42-8.421 8.42H8.42A8.42 8.42 0 0 1 0 23.579z"/><g filter="url(#a)"><path fill="#fff" d="M8.421 8.421a1.684 1.684 0 0 1 3.368 0V23.58a1.684 1.684 0 0 1-3.368 0z"/></g><g filter="url(#b)" opacity=".9"><path fill="#fff" d="M14.737 15.158a1.684 1.684 0 1 1 3.368 0v8.42a1.684 1.684 0 1 1-3.368 0z"/></g><g filter="url(#c)" opacity=".7"><path fill="#fff" d="M21.052 10.947a1.684 1.684 0 0 1 3.369 0v12.631a1.684 1.684 0 1 1-3.369 0z"/></g><defs><filter id="a" width="5.369" height="20.526" x="7.421" y="6.237" color-interpolation-filters="sRGB" filterUnits="userSpaceOnUse"><feFlood flood-opacity="0" result="BackgroundImageFix"/><feColorMatrix in="SourceAlpha" result="hardAlpha" values="0 0 0 0 0 0 0 0 0 0 0 0 0 0 0 0 0 0 127 0"/><feOffset dy=".5"/><feGaussianBlur stdDeviation=".5"/><feComposite in2="hardAlpha" operator="out"/><feColorMatrix values="0 0 0 0 0 0 0 0 0 0 0 0 0 0 0 0 0 0 0.12 0"/><feBlend in2="BackgroundImageFix" result="effect1_dropShadow_506_10589"/><feBlend in="SourceGraphic" in2="effect1_dropShadow_506_10589" result="shape"/></filter><filter id="b" width="5.369" height="13.79" x="13.737" y="12.973" color-interpolation-filters="sRGB" filterUnits="userSpaceOnUse"><feFlood flood-opacity="0" result="BackgroundImageFix"/><feColorMatrix in="SourceAlpha" result="hardAlpha" values="0 0 0 0 0 0 0 0 0 0 0 0 0 0 0 0 0 0 127 0"/><feOffset dy=".5"/><feGaussianBlur stdDeviation=".5"/><feComposite in2="hardAlpha" operator="out"/><feColorMatrix values="0 0 0 0 0 0 0 0 0 0 0 0 0 0 0 0 0 0 0.12 0"/><feBlend in2="BackgroundImageFix" result="effect1_dropShadow_506_10589"/><feBlend in="SourceGraphic" in2="effect1_dropShadow_506_10589" result="shape"/></filter><filter id="c" width="5.369" height="18" x="20.052" y="8.763" color-interpolation-filters="sRGB" filterUnits="userSpaceOnUse"><feFlood flood-opacity="0" result="BackgroundImageFix"/><feColorMatrix in="SourceAlpha" result="hardAlpha" values="0 0 0 0 0 0 0 0 0 0 0 0 0 0 0 0 0 0 127 0"/><feOffset dy=".5"/><feGaussianBlur stdDeviation=".5"/><feComposite in2="hardAlpha" operator="out"/><feColorMatrix values="0 0 0 0 0 0 0 0 0 0 0 0 0 0 0 0 0 0 0.12 0"/><feBlend in2="BackgroundImageFix" result="effect1_dropShadow_506_10589"/><feBlend in="SourceGraphic" in2="effect1_dropShadow_506_10589" result="shape"/></filter></defs></svg>