<svg xmlns="http://www.w3.org/2000/svg" width="333" height="96" fill="none"><g fill="#fff"><path d="M77.904 45.478a1.224 1.224 0 0 0-1.201-1.104H46.774a4.66 4.66 0 0 0-3.963 2.4 4.2 4.2 0 0 0 0 4.176 1.3 1.3 0 0 0 1.08.696h32.884a1.226 1.226 0 0 0 1.201-1.104v-2.4c0-.672 0-1.752-.072-2.664" opacity=".88"/><path d="M51.409 51.55h-7.59a1.35 1.35 0 0 1-1.057-.648l13.955 24.696a1.2 1.2 0 0 0 1.057.6q.204.034.409 0a29.4 29.4 0 0 0 4.587-2.112 1.176 1.176 0 0 0 .432-1.632z" opacity=".72"/><path d="M57.691 76.414h.036q.192.034.384 0l.768-.312.697-.288a28 28 0 0 0 3.099-1.512c4.683-2.636 8.574-6.477 11.269-11.124s4.095-9.93 4.055-15.3c0-.888-.048-1.584-.12-2.4a1.2 1.2 0 0 0-1.177-1.104h-4.804a1.2 1.2 0 0 0-.888.408 1.13 1.13 0 0 0-.289.912v2.4a22.79 22.79 0 0 1-10.569 19.2q-.19.125-.377.26l-.214.153a1.4 1.4 0 0 0-.343.117 22.6 22.6 0 0 1-11.241 2.952c-6.048-.013-11.845-2.419-16.122-6.692s-6.685-10.065-6.697-16.108c.012-6.043 2.42-11.835 6.697-16.108s10.074-6.68 16.122-6.692a22.9 22.9 0 0 1 11.24 2.952c.18.114.389.172.601.168h.264a1.23 1.23 0 0 0 .793-.576l2.402-4.176a1.223 1.223 0 0 0-.432-1.656A30.1 30.1 0 0 0 48.025 18a30.1 30.1 0 0 0-21.217 8.8A30.04 30.04 0 0 0 18 48a30.04 30.04 0 0 0 8.808 21.2A30.1 30.1 0 0 0 48.025 78c3.3.003 6.564-.537 9.666-1.586m57.883-42.461v33.969h-5.973v-33.97H100.5v-5.614h24.15v5.615zm29.508 8.998h5.794v24.97h-5.794v-2.614q-3.563 3.332-7.665 3.332-5.18 0-8.563-3.743-3.358-3.82-3.358-9.536 0-5.615 3.358-9.358c3.358-3.743 5.042-3.743 8.409-3.743q4.359 0 7.819 3.59zm-13.69 12.408q0 3.59 1.923 5.846 1.974 2.28 4.974 2.281 3.204 0 5.178-2.204 1.974-2.282 1.974-5.794c0-3.512-.658-4.273-1.974-5.794q-1.974-2.23-5.127-2.23-2.974 0-4.974 2.255-1.974 2.283-1.974 5.64m32.533-12.408v24.97h-5.768v-24.97zm-6.64-10.382q0-1.513 1.103-2.616 1.103-1.102 2.64-1.102 1.564 0 2.667 1.102 1.102 1.078 1.102 2.641a3.64 3.64 0 0 1-1.102 2.666q-1.077 1.103-2.641 1.103c-1.564 0-1.931-.368-2.666-1.103q-1.103-1.102-1.103-2.691M177 24.621v43.3h-5.768v-43.3zm33.931 23.181h16.614v1.336q0 4.558-1.067 8.068-1.042 3.247-3.516 6.076-5.598 6.34-14.244 6.34-8.437 0-14.453-6.13-6.015-6.156-6.015-14.773 0-8.8 6.12-14.93 6.119-6.156 14.895-6.156 4.713 0 8.802 1.939 3.906 1.938 7.681 6.286l-4.322 4.165q-4.949-6.627-12.057-6.627-6.38 0-10.703 4.427-4.323 4.347-4.322 10.896 0 6.758 4.817 11.132 4.505 4.06 9.765 4.06 4.479 0 8.047-3.038 3.567-3.065 3.984-7.335h-10.026zm23.15-4.452h5.86v2.278q1.614-1.702 2.864-2.331 1.276-.655 3.021-.655 2.317 0 4.843 1.52l-2.682 5.395q-1.666-1.205-3.255-1.205-4.791 0-4.791 7.282V68.86h-5.86zm26.64 0v25.51h-5.859V43.35zm-6.744-10.609q0-1.545 1.119-2.672 1.12-1.125 2.682-1.126a3.68 3.68 0 0 1 2.709 1.126q1.119 1.1 1.119 2.698c0 1.598-.373 1.973-1.119 2.724q-1.094 1.127-2.683 1.127c-1.589 0-1.961-.376-2.708-1.127q-1.119-1.125-1.119-2.75m32.863-8.12h5.885v44.24h-5.885V66.19q-3.464 3.405-7.838 3.405-5.209 0-8.646-3.824-3.411-3.903-3.411-9.744 0-5.71 3.411-9.534 3.385-3.85 8.515-3.851 4.453 0 7.969 3.667zm-13.906 31.406q0 3.666 1.953 5.972 2.005 2.331 5.052 2.331 3.255 0 5.26-2.253 2.005-2.33 2.005-5.92 0-3.588-2.005-5.919-2.005-2.28-5.208-2.279-3.021 0-5.052 2.305-2.005 2.331-2.005 5.763m41.925-8.33-4.843 2.593q-1.146-2.357-2.839-2.357-.807 0-1.38.55-.573.524-.573 1.362 0 1.467 3.386 2.908 4.66 2.016 6.275 3.72 1.615 1.701 1.615 4.583 0 3.694-2.708 6.181-2.631 2.358-6.354 2.358-6.38 0-9.036-6.26l5-2.332q1.041 1.834 1.588 2.332 1.068.995 2.552.995 2.969 0 2.969-2.724 0-1.572-2.292-2.934-.885-.445-1.771-.864-.885-.42-1.796-.864-2.553-1.258-3.594-2.515-1.328-1.598-1.328-4.112 0-3.328 2.265-5.5 2.318-2.175 5.625-2.175 4.87 0 7.239 5.055"/></g></svg>