<svg xmlns="http://www.w3.org/2000/svg" width="127" height="44" fill="none"><clipPath id="a"><path d="M0 0h127v43.688H0z"/></clipPath><g clip-path="url(#a)"><g fill="#0ed7b5"><path d="M41.865 0H1.702C.749 0 0 .749 0 1.702v24.37c0 .953.749 1.702 1.702 1.702h40.163c.953 0 1.702-.749 1.702-1.702V1.702C43.567.749 42.818 0 41.865 0m-1.702 24.37H3.404V3.404h36.76zm-2.178 8.305H5.582c-.953 0-1.702.75-1.702 1.702 0 .953.749 1.702 1.702 1.702h32.403c.953 0 1.702-.749 1.702-1.702s-.749-1.702-1.702-1.702m0 7.489H5.582c-.953 0-1.702.748-1.702 1.701s.749 1.702 1.702 1.702h32.403c.953 0 1.702-.749 1.702-1.702s-.749-1.701-1.702-1.701"/><path fill-rule="evenodd" d="M21.784 6.127q-5.175 0-6.467 4.992 1.94-2.496 4.527-1.872c.983.237 1.687.926 2.465 1.688 1.268 1.242 2.736 2.68 5.942 2.68q5.173 0 6.467-4.992-1.941 2.496-4.527 1.872c-.984-.238-1.687-.926-2.466-1.689-1.268-1.242-2.736-2.68-5.941-2.68m-6.467 7.488q-5.175 0-6.467 4.992 1.94-2.496 4.527-1.872c.984.237 1.687.926 2.465 1.688 1.268 1.242 2.736 2.68 5.942 2.68q5.173 0 6.467-4.992-1.941 2.496-4.527 1.872c-.984-.237-1.688-.926-2.466-1.689-1.268-1.242-2.736-2.68-5.941-2.68" clip-rule="evenodd"/></g><path fill="#fff" d="m57.303 6.039-.228 1.707h-2.926v9.526h-2.162V7.746h-3.024V6.039zm6.884 8.957q0 .504.146.748.162.227.504.358l-.44 1.381q-.73-.064-1.202-.357-.456-.293-.7-.894a2.8 2.8 0 0 1-1.105.975 3.4 3.4 0 0 1-1.463.309q-1.284 0-2.032-.732-.747-.731-.747-1.918 0-1.398 1.008-2.13 1.023-.747 2.91-.747h1.072V11.5q0-.829-.39-1.154-.374-.341-1.22-.341-.942 0-2.275.455l-.488-1.415q1.61-.617 3.122-.617 3.3 0 3.3 2.958zm-3.707 1.008q1.057 0 1.658-1.057v-1.74h-.861q-2.016 0-2.016 1.497 0 .617.309.959c.309.342.51.341.91.341m8.305-7.331v8.599h-2.08v-8.6zM67.73 4.316q.585 0 .942.374.374.357.374.894t-.374.894q-.357.357-.942.358-.57 0-.943-.358a1.2 1.2 0 0 1-.358-.894q0-.537.358-.894.374-.374.943-.374m5.595 13.2q-.99 0-1.56-.57-.553-.585-.553-1.641V5.226L73.291 5v10.24q0 .602.489.602.244 0 .487-.08l.44 1.462a3.3 3.3 0 0 1-1.383.293m13.264-8.843-1.87 8.599h-2.6l-1.3-6.746-1.334 6.746h-2.552l-1.902-8.6h2.08l1.204 7.072 1.495-7.071h2.13l1.365 7.07 1.284-7.07zm3.517 0v8.599h-2.08v-8.6zM89.05 4.316q.585 0 .943.374.373.357.373.894t-.373.894q-.358.357-.943.358-.57 0-.943-.358a1.2 1.2 0 0 1-.358-.894q0-.537.358-.894.374-.374.943-.374m8.148 4.113q1.154 0 1.788.699.65.682.65 1.918v6.226h-2.08V11.37q0-.765-.277-1.073-.26-.309-.78-.309-.537 0-.976.342-.422.324-.829.959v5.982h-2.08v-8.6h1.804l.162 1.122q1.057-1.365 2.618-1.365m12.095-3.203v12.046h-1.837l-.146-1.09a3 3 0 0 1-1.041.976 2.77 2.77 0 0 1-1.414.358q-1.577 0-2.422-1.22-.845-1.218-.845-3.316 0-1.316.422-2.34.423-1.041 1.203-1.626a3.02 3.02 0 0 1 1.837-.585q1.236 0 2.162.926V5zm-3.853 10.713q.553 0 .976-.26.422-.276.796-.845V10.9a2.9 2.9 0 0 0-.764-.683 1.66 1.66 0 0 0-.878-.228q-.828 0-1.317.748-.471.732-.471 2.227 0 1.593.423 2.292.422.683 1.235.683m-48.137 9.743-.227 1.707H54.15v9.526h-2.162v-9.526h-3.024v-1.707zm7.504 6.73q0 .162-.049.845H59.36q.098 1.252.65 1.788.554.537 1.463.537.57 0 1.073-.18.504-.194 1.073-.584l.862 1.186q-1.431 1.155-3.186 1.155-1.968 0-3.04-1.203-1.057-1.203-1.057-3.284 0-1.317.455-2.357.456-1.057 1.317-1.642.861-.602 2.048-.602 1.805 0 2.796 1.155.992 1.137.992 3.186m-2.065-.602q0-2.26-1.674-2.26-.764 0-1.203.57-.423.552-.504 1.788h3.381zm13.051-3.739q1.041 0 1.658.716.618.699.618 1.902v6.226h-2.08v-5.901q0-1.382-.944-1.382-.503 0-.877.325-.358.309-.748.975v5.983h-2.08v-5.901q0-1.382-.944-1.382-.519 0-.894.325-.357.309-.747.975v5.983h-2.081v-8.6h1.804l.163 1.122q.975-1.365 2.487-1.366.747 0 1.284.39.553.375.797 1.057.52-.7 1.138-1.073.633-.374 1.446-.374m9.146 0q1.626 0 2.406 1.187.78 1.186.78 3.333 0 1.333-.406 2.373-.39 1.025-1.17 1.61-.765.585-1.821.584-1.365 0-2.162-.942v4.015l-2.081.227V28.315h1.82l.114 1.057a3.4 3.4 0 0 1 1.154-.976 3 3 0 0 1 1.366-.325m-.797 7.494q1.805 0 1.805-2.958 0-1.577-.407-2.276-.406-.7-1.219-.7-.52.001-.975.326a2.7 2.7 0 0 0-.78.845v3.87q.6.893 1.576.893m8.059 1.593q-.992 0-1.56-.569-.555-.585-.554-1.641v-10.08l2.081-.227v10.242q0 .6.488.601.244 0 .487-.081l.44 1.463a3.3 3.3 0 0 1-1.382.293m9.039-2.52q0 .505.146.748.162.228.504.358l-.439 1.382q-.732-.065-1.203-.358-.454-.292-.699-.894a2.8 2.8 0 0 1-1.105.976 3.4 3.4 0 0 1-1.463.309q-1.285 0-2.032-.732T94.2 34.51q0-1.398 1.008-2.13 1.024-.748 2.91-.748h1.072v-.487q0-.83-.39-1.154-.373-.342-1.219-.342-.942 0-2.276.455l-.487-1.414q1.61-.618 3.12-.618 3.301 0 3.301 2.959zm-3.707 1.009q1.057 0 1.658-1.057v-1.74h-.861q-2.016.001-2.016 1.496 0 .618.309.96c.309.341.51.34.91.34m11.15.861q-.455.326-1.024.488a4 4 0 0 1-1.138.162q-1.268-.015-1.934-.715-.651-.715-.651-2.097v-4.535h-1.349v-1.496h1.349v-1.902l2.081-.244v2.146h2l-.212 1.496h-1.788v4.486q0 .634.212.91.227.277.699.277.47 0 1.024-.309zm7.956-4.096q0 .162-.049.845h-5.397q.098 1.252.65 1.788.553.537 1.463.537.57 0 1.073-.18.504-.194 1.073-.584l.862 1.186q-1.431 1.155-3.186 1.155-1.968 0-3.04-1.203-1.057-1.203-1.057-3.284 0-1.317.455-2.357.456-1.057 1.317-1.642.861-.602 2.048-.602 1.804 0 2.796 1.155.992 1.137.992 3.186m-2.065-.602q0-2.26-1.674-2.26-.763 0-1.203.57-.423.552-.504 1.788h3.381zm6.646-3.739q1.74 0 3.056 1.024l-.812 1.22q-1.106-.7-2.162-.7-.618 0-.959.245a.71.71 0 0 0-.342.617q0 .293.146.488.147.195.521.374.39.162 1.138.374 1.398.374 2.064.991.683.618.683 1.723 0 1.285-1.041 2.016-1.04.715-2.584.715a5.5 5.5 0 0 1-1.935-.325 4.7 4.7 0 0 1-1.495-.894l1.04-1.17q1.122.845 2.341.845.699 0 1.105-.276a.87.87 0 0 0 .423-.764q0-.375-.163-.585-.145-.228-.552-.39-.39-.18-1.236-.423-1.317-.359-1.934-.992-.618-.65-.618-1.61 0-.714.407-1.283.422-.57 1.17-.894.764-.326 1.739-.326"/></g></svg>