<svg xmlns="http://www.w3.org/2000/svg" width="46" height="46" fill="none"><g fill="#fff" fill-opacity=".44"><circle cx="1.397" cy="44.603" r="1.397" transform="rotate(-90 1.397 44.603)"/><circle cx="1.397" cy="7.991" r="1.397" transform="rotate(-90 1.397 7.991)"/><circle cx="13.694" cy="44.603" r="1.397" transform="rotate(-90 13.694 44.603)"/><circle cx="13.694" cy="7.991" r="1.397" transform="rotate(-90 13.694 7.991)"/><circle cx="25.991" cy="44.603" r="1.397" transform="rotate(-90 25.991 44.603)"/><circle cx="25.991" cy="7.991" r="1.397" transform="rotate(-90 25.991 7.991)"/><circle cx="38.288" cy="44.603" r="1.397" transform="rotate(-90 38.288 44.603)"/><circle cx="38.288" cy="7.991" r="1.397" transform="rotate(-90 38.288 7.991)"/><circle cx="1.397" cy="32.306" r="1.397" transform="rotate(-90 1.397 32.306)"/><circle cx="13.694" cy="32.306" r="1.397" transform="rotate(-90 13.694 32.306)"/><circle cx="25.991" cy="32.306" r="1.397" transform="rotate(-90 25.991 32.306)"/><circle cx="38.288" cy="32.306" r="1.397" transform="rotate(-90 38.288 32.306)"/><circle cx="1.397" cy="20.009" r="1.397" transform="rotate(-90 1.397 20.009)"/><circle cx="13.694" cy="20.009" r="1.397" transform="rotate(-90 13.694 20.009)"/><circle cx="25.991" cy="20.009" r="1.397" transform="rotate(-90 25.991 20.009)"/><circle cx="38.288" cy="20.009" r="1.397" transform="rotate(-90 38.288 20.009)"/></g></svg>